<!--
based on

Noun Project:
https://thenounproject.com/browse/icons/term/matrix/
matrix by Jino
matrix by Marc Torrada

https://icons.getbootstrap.com/icons/arrow-right/

Subject to their relevant licenses.
-->
<?xml version="1.0" encoding="UTF-8" standalone="no"?>
<svg
   width="3600pt"
   height="1200pt"
   version="1.1"
   viewBox="0 0 3600 1200"
   id="svg186"
   sodipodi:docname="dimensionality-reduction.svg"
   xml:space="preserve"
   inkscape:version="1.2.2 (b0a8486541, 2022-12-01)"
   xmlns:inkscape="http://www.inkscape.org/namespaces/inkscape"
   xmlns:sodipodi="http://sodipodi.sourceforge.net/DTD/sodipodi-0.dtd"
   xmlns="http://www.w3.org/2000/svg"
   xmlns:svg="http://www.w3.org/2000/svg"><defs
     id="defs190" /><sodipodi:namedview
     id="namedview188"
     pagecolor="#ffffff"
     bordercolor="#666666"
     borderopacity="1.0"
     inkscape:showpageshadow="2"
     inkscape:pageopacity="0.0"
     inkscape:pagecheckerboard="0"
     inkscape:deskcolor="#d1d1d1"
     inkscape:document-units="pt"
     showgrid="false"
     inkscape:zoom="0.364375"
     inkscape:cx="2235.3345"
     inkscape:cy="845.28302"
     inkscape:window-width="2560"
     inkscape:window-height="1369"
     inkscape:window-x="-8"
     inkscape:window-y="816"
     inkscape:window-maximized="1"
     inkscape:current-layer="svg186" /><g
     id="g184"
     transform="translate(0,-0.03216645)"><path
       d="m 150,1118 c -37.5,0 -67.57,-11.227 -89.25,-33.375 -35.133,-35.859 -34.969,-87.234 -34.969,-90.844 v -787.5 c 0,-120.23 122.74,-124.22 123.98,-124.22 6.4727,-0.13672 11.828,5 11.965,11.473 0.137,6.473 -5,11.828 -11.473,11.965 -4.4297,0.11719 -101.04,3.7969 -101.04,100.78 v 787.73 c 0,0.42188 -0.39844,45.094 28.406,74.344 17.109,17.391 41.461,26.203 72.375,26.203 6.4727,0 11.719,5.2461 11.719,11.719 0,6.4729 -5.2461,11.719 -11.719,11.719 z"
       id="path132" /><path
       d="m 1052.3,1118 c -6.4727,0.07 -11.777,-5.1172 -11.848,-11.59 -0.07,-6.4727 5.1172,-11.777 11.59,-11.848 4.4297,-0.1172 101.04,-3.7969 101.04,-100.78 v -787.73 c 0,-0.42188 0.3984,-45.094 -28.406,-74.344 -17.109,-17.391 -41.461,-26.203 -72.375,-26.203 -6.4727,0 -11.719,-5.2461 -11.719,-11.719 0,-6.4729 5.2461,-11.719 11.719,-11.719 37.5,0 67.57,11.227 89.25,33.375 35.133,35.859 34.969,87.234 34.969,90.844 v 787.5 c 0,120.23 -122.74,124.22 -123.98,124.22 z"
       id="path134" /><path
       d="m 339.84,295.31 c -6.4727,0 -11.719,-5.2461 -11.719,-11.719 v -112.5 c 0,-6.4727 5.2461,-11.719 11.719,-11.719 6.4729,0 11.719,5.2461 11.719,11.719 v 112.5 c 0,3.1094 -1.2344,6.0898 -3.4336,8.2852 -2.1953,2.1992 -5.1758,3.4336 -8.2852,3.4336 z"
       id="path136" /><path
       d="m 187.5,482.81 c -6.4727,0 -11.719,-5.2461 -11.719,-11.719 v -112.5 c 0,-6.4727 5.2461,-11.719 11.719,-11.719 6.4729,0 11.719,5.2461 11.719,11.719 v 112.5 c 0,3.1094 -1.2344,6.0898 -3.4336,8.2852 -2.1953,2.1992 -5.1758,3.4336 -8.2852,3.4336 z"
       id="path138" /><path
       d="m 489.84,482.81 c -6.4727,0 -11.719,-5.2461 -11.719,-11.719 v -112.5 c 0,-6.4727 5.2461,-11.719 11.719,-11.719 6.4729,0 11.719,5.2461 11.719,11.719 v 112.5 c 0,3.1094 -1.2344,6.0898 -3.4336,8.2852 -2.1953,2.1992 -5.1758,3.4336 -8.2852,3.4336 z"
       id="path140" /><path
       d="m 489.84,672.66 c -6.4727,0 -11.719,-5.2461 -11.719,-11.719 v -112.5 c 0,-6.4727 5.2461,-11.719 11.719,-11.719 6.4729,0 11.719,5.2461 11.719,11.719 v 112.5 c 0,3.1094 -1.2344,6.0898 -3.4336,8.2852 -2.1953,2.1992 -5.1758,3.4336 -8.2852,3.4336 z"
       id="path142" /><path
       d="m 337.5,1043 c -6.4727,0 -11.719,-5.2461 -11.719,-11.719 v -112.5 c 0,-6.4727 5.2461,-11.719 11.719,-11.719 6.4729,0 11.719,5.2461 11.719,11.719 v 112.5 c 0,3.1094 -1.2344,6.0898 -3.4336,8.2852 -2.1953,2.1992 -5.1758,3.4336 -8.2852,3.4336 z"
       id="path144" /><path
       d="m 189.84,300 c -37.828,0 -51.562,-30.844 -51.562,-51.562 v -39.844 c 0,-20.719 13.734,-51.562 51.562,-51.562 37.828,0 51.562,30.844 51.562,51.562 v 39.844 c 0,20.719 -13.734,51.562 -51.562,51.562 z m 0,-119.53 c -11.719,0 -19.523,4.2188 -24.094,12.867 -2.3945,4.75 -3.7656,9.9453 -4.0312,15.258 v 39.844 c 0.26562,5.3125 1.6367,10.508 4.0312,15.258 4.5703,8.6484 12.375,12.867 24.094,12.867 11.719,0 19.523,-4.2188 24.094,-12.867 2.3945,-4.75 3.7656,-9.9453 4.0312,-15.258 v -39.844 c -0.26562,-5.3125 -1.6367,-10.508 -4.0312,-15.258 -4.5703,-8.6484 -12.375,-12.867 -24.094,-12.867 z"
       id="path146" /><path
       d="m 489.84,300 c -37.828,0 -51.562,-30.844 -51.562,-51.562 v -39.844 c 0,-20.719 13.734,-51.562 51.562,-51.562 37.828,0 51.562,30.844 51.562,51.562 v 39.844 c 0,20.719 -13.734,51.562 -51.562,51.562 z m 0,-119.53 c -11.719,0 -19.523,4.2188 -24.094,12.867 -2.3945,4.75 -3.7656,9.9453 -4.0312,15.258 v 39.844 c 0.26562,5.3125 1.6367,10.508 4.0312,15.258 4.5703,8.6484 12.375,12.867 24.094,12.867 11.719,0 19.523,-4.2188 24.094,-12.867 2.3945,-4.75 3.7656,-9.9453 4.0312,-15.258 v -39.844 c -0.26562,-5.3125 -1.6367,-10.508 -4.0312,-15.258 -4.5703,-8.6484 -12.375,-12.867 -24.094,-12.867 z"
       id="path148" /><path
       d="m 1012.5,482.81 c -6.4727,0 -11.719,-5.2461 -11.719,-11.719 v -112.5 c 0,-6.4727 5.2461,-11.719 11.719,-11.719 6.4729,0 11.719,5.2461 11.719,11.719 v 112.5 c 0,3.1094 -1.2344,6.0898 -3.4336,8.2852 -2.1953,2.1992 -5.1758,3.4336 -8.2852,3.4336 z"
       id="path150" /><path
       d="m 1012.5,1043 c -6.4727,0 -11.719,-5.2461 -11.719,-11.719 v -112.5 c 0,-6.4727 5.2461,-11.719 11.719,-11.719 6.4729,0 11.719,5.2461 11.719,11.719 v 112.5 c 0,3.1094 -1.2344,6.0898 -3.4336,8.2852 -2.1953,2.1992 -5.1758,3.4336 -8.2852,3.4336 z"
       id="path152" /><path
       d="m 1012.5,300 c -37.828,0 -51.562,-30.844 -51.562,-51.562 v -39.844 c 0,-20.719 13.734,-51.562 51.562,-51.562 37.828,0 51.562,30.844 51.562,51.562 v 39.844 c 0,20.719 -13.734,51.562 -51.562,51.562 z m 0,-119.53 c -11.719,0 -19.523,4.2188 -24.094,12.867 -2.3945,4.75 -3.7656,9.9453 -4.0312,15.258 v 39.844 c 0.26562,5.3125 1.6367,10.508 4.0312,15.258 4.5703,8.6484 12.375,12.867 24.094,12.867 11.719,0 19.523,-4.2188 24.094,-12.867 2.3945,-4.75 3.7656,-9.9453 4.0312,-15.258 v -39.844 c -0.2656,-5.3125 -1.6367,-10.508 -4.0312,-15.258 -4.5703,-8.6484 -12.375,-12.867 -24.094,-12.867 z"
       id="path154" /><path
       d="m 1012.5,670.31 c -37.828,0 -51.562,-30.844 -51.562,-51.562 v -39.844 c 0,-20.719 13.734,-51.562 51.562,-51.562 37.828,0 51.562,30.844 51.562,51.562 v 39.844 c 0,20.719 -13.734,51.562 -51.562,51.562 z m 0,-119.53 c -11.719,0 -19.523,4.2188 -24.094,12.867 -2.3945,4.75 -3.7656,9.9453 -4.0312,15.258 v 39.844 c 0.26562,5.3125 1.6367,10.508 4.0312,15.258 4.5703,8.6484 12.375,12.867 24.094,12.867 11.719,0 19.523,-4.2188 24.094,-12.867 2.3945,-4.75 3.7656,-9.9453 4.0312,-15.258 v -39.844 c -0.2656,-5.3125 -1.6367,-10.508 -4.0312,-15.258 -4.5703,-8.6484 -12.375,-12.867 -24.094,-12.867 z"
       id="path156" /><path
       d="m 337.5,482.81 c -37.828,0 -51.562,-30.844 -51.562,-51.562 v -39.844 c 0,-20.719 13.734,-51.562 51.562,-51.562 37.828,0 51.562,30.844 51.562,51.562 v 39.844 c 0,20.719 -13.734,51.562 -51.562,51.562 z m 0,-119.53 c -11.719,0 -19.523,4.2188 -24.094,12.867 -2.3945,4.75 -3.7656,9.9453 -4.0312,15.258 v 39.844 c 0.26562,5.3125 1.6367,10.508 4.0312,15.258 4.5703,8.6484 12.375,12.867 24.094,12.867 11.719,0 19.523,-4.2188 24.094,-12.867 2.3945,-4.75 3.7656,-9.9453 4.0312,-15.258 v -39.844 c -0.26562,-5.3125 -1.6367,-10.508 -4.0312,-15.258 -4.5703,-8.6484 -12.375,-12.867 -24.094,-12.867 z"
       id="path158" /><path
       d="m 337.5,672.66 c -37.828,0 -51.562,-30.844 -51.562,-51.562 v -39.844 c 0,-20.719 13.734,-51.562 51.562,-51.562 37.828,0 51.562,30.844 51.562,51.562 v 39.844 c 0,20.719 -13.734,51.562 -51.562,51.562 z m 0,-119.53 c -11.719,0 -19.523,4.2188 -24.094,12.867 -2.3945,4.75 -3.7656,9.9453 -4.0312,15.258 v 39.844 c 0.26562,5.3125 1.6367,10.508 4.0312,15.258 4.5703,8.6484 12.375,12.867 24.094,12.867 11.719,0 19.523,-4.2188 24.094,-12.867 2.3945,-4.75 3.7656,-9.9453 4.0312,-15.258 v -39.844 c -0.26562,-5.3125 -1.6367,-10.508 -4.0312,-15.258 -4.5703,-8.6484 -12.375,-12.867 -24.094,-12.867 z"
       id="path160" /><path
       d="m 189.84,672.66 c -37.828,0 -51.562,-30.844 -51.562,-51.562 v -39.844 c 0,-20.719 13.734,-51.562 51.562,-51.562 37.828,0 51.562,30.844 51.562,51.562 v 39.844 c 0,20.719 -13.734,51.562 -51.562,51.562 z m 0,-119.53 c -11.719,0 -19.523,4.2188 -24.094,12.867 -2.3945,4.75 -3.7656,9.9453 -4.0312,15.258 v 39.844 c 0.26562,5.3125 1.6367,10.508 4.0312,15.258 4.5703,8.6484 12.375,12.867 24.094,12.867 11.719,0 19.523,-4.2188 24.094,-12.867 2.3945,-4.75 3.7656,-9.9453 4.0312,-15.258 v -39.844 c -0.26562,-5.3125 -1.6367,-10.508 -4.0312,-15.258 -4.5703,-8.6484 -12.375,-12.867 -24.094,-12.867 z"
       id="path162" /><path
       d="m 489.84,1045.3 c -37.828,0 -51.562,-30.844 -51.562,-51.562 v -39.844 c 0,-20.719 13.734,-51.562 51.562,-51.562 37.828,0 51.562,30.844 51.562,51.562 v 39.844 c 0,20.719 -13.734,51.562 -51.562,51.562 z m 0,-119.53 c -11.719,0 -19.523,4.2188 -24.094,12.867 -2.3945,4.75 -3.7656,9.9453 -4.0312,15.258 v 39.844 c 0.26562,5.3125 1.6367,10.508 4.0312,15.258 4.5703,8.6484 12.375,12.867 24.094,12.867 11.719,0 19.523,-4.2188 24.094,-12.867 2.3945,-4.75 3.7656,-9.9453 4.0312,-15.258 v -39.844 c -0.26562,-5.3125 -1.6367,-10.508 -4.0312,-15.258 -4.5703,-8.6484 -12.375,-12.867 -24.094,-12.867 z"
       id="path164" /><path
       d="m 187.5,1045.3 c -37.828,0 -51.562,-30.844 -51.562,-51.562 v -39.844 c 0,-20.719 13.734,-51.562 51.562,-51.562 37.828,0 51.562,30.844 51.562,51.562 v 39.844 c 0,20.719 -13.734,51.562 -51.562,51.562 z m 0,-119.53 c -11.719,0 -19.523,4.2188 -24.094,12.867 -2.3945,4.75 -3.7656,9.9453 -4.0312,15.258 v 39.844 c 0.26562,5.3125 1.6367,10.508 4.0312,15.258 4.5703,8.6484 12.375,12.867 24.094,12.867 11.719,0 19.523,-4.2188 24.094,-12.867 2.3945,-4.75 3.7656,-9.9453 4.0312,-15.258 v -39.844 c -0.26562,-5.3125 -1.6367,-10.508 -4.0312,-15.258 -4.5703,-8.6484 -12.375,-12.867 -24.094,-12.867 z"
       id="path166" /><path
       d="m 850.78,236.72 h -2.3438 c -6.4727,0 -11.719,-5.2461 -11.719,-11.719 0,-6.4729 5.2461,-11.719 11.719,-11.719 h 2.3438 c 6.4727,0 11.719,5.2461 11.719,11.719 0,6.4729 -5.2461,11.719 -11.719,11.719 z m -49.219,0 h -2.3438 c -6.4727,0 -11.719,-5.2461 -11.719,-11.719 0,-6.4729 5.2461,-11.719 11.719,-11.719 h 2.3438 c 6.4727,0 11.719,5.2461 11.719,11.719 0,6.4729 -5.2461,11.719 -11.719,11.719 z m -49.219,0 h -2.3438 c -6.4727,0 -11.719,-5.2461 -11.719,-11.719 0,-6.4729 5.2461,-11.719 11.719,-11.719 h 2.3438 c 6.4727,0 11.719,5.2461 11.719,11.719 0,6.4729 -5.2461,11.719 -11.719,11.719 z m -49.219,0 h -2.3438 c -6.4727,0 -11.719,-5.2461 -11.719,-11.719 0,-6.4729 5.2461,-11.719 11.719,-11.719 h 2.3438 c 6.4727,0 11.719,5.2461 11.719,11.719 0,6.4729 -5.2461,11.719 -11.719,11.719 z m -49.219,0 h -2.3438 c -6.4727,0 -11.719,-5.2461 -11.719,-11.719 0,-6.4729 5.2461,-11.719 11.719,-11.719 h 2.3438 c 6.4727,0 11.719,5.2461 11.719,11.719 0,6.4729 -5.2461,11.719 -11.719,11.719 z m -49.219,0 h -2.3438 c -6.4727,0 -11.719,-5.2461 -11.719,-11.719 0,-6.4729 5.2461,-11.719 11.719,-11.719 h 2.3438 c 6.4727,0 11.719,5.2461 11.719,11.719 0,6.4729 -5.2461,11.719 -11.719,11.719 z"
       id="path168" /><path
       d="m 850.78,424.22 h -2.3438 c -6.4727,0 -11.719,-5.2461 -11.719,-11.719 0,-6.4729 5.2461,-11.719 11.719,-11.719 h 2.3438 c 6.4727,0 11.719,5.2461 11.719,11.719 0,6.4729 -5.2461,11.719 -11.719,11.719 z m -49.219,0 h -2.3438 c -6.4727,0 -11.719,-5.2461 -11.719,-11.719 0,-6.4729 5.2461,-11.719 11.719,-11.719 h 2.3438 c 6.4727,0 11.719,5.2461 11.719,11.719 0,6.4729 -5.2461,11.719 -11.719,11.719 z m -49.219,0 h -2.3438 c -6.4727,0 -11.719,-5.2461 -11.719,-11.719 0,-6.4729 5.2461,-11.719 11.719,-11.719 h 2.3438 c 6.4727,0 11.719,5.2461 11.719,11.719 0,6.4729 -5.2461,11.719 -11.719,11.719 z m -49.219,0 h -2.3438 c -6.4727,0 -11.719,-5.2461 -11.719,-11.719 0,-6.4729 5.2461,-11.719 11.719,-11.719 h 2.3438 c 6.4727,0 11.719,5.2461 11.719,11.719 0,6.4729 -5.2461,11.719 -11.719,11.719 z m -49.219,0 h -2.3438 c -6.4727,0 -11.719,-5.2461 -11.719,-11.719 0,-6.4729 5.2461,-11.719 11.719,-11.719 h 2.3438 c 6.4727,0 11.719,5.2461 11.719,11.719 0,6.4729 -5.2461,11.719 -11.719,11.719 z m -49.219,0 h -2.3438 c -6.4727,0 -11.719,-5.2461 -11.719,-11.719 0,-6.4729 5.2461,-11.719 11.719,-11.719 h 2.3438 c 6.4727,0 11.719,5.2461 11.719,11.719 0,6.4729 -5.2461,11.719 -11.719,11.719 z"
       id="path170" /><path
       d="m 850.78,611.72 h -2.3438 c -6.4727,0 -11.719,-5.2461 -11.719,-11.719 0,-6.4729 5.2461,-11.719 11.719,-11.719 h 2.3438 c 6.4727,0 11.719,5.2461 11.719,11.719 0,6.4729 -5.2461,11.719 -11.719,11.719 z m -49.219,0 h -2.3438 c -6.4727,0 -11.719,-5.2461 -11.719,-11.719 0,-6.4729 5.2461,-11.719 11.719,-11.719 h 2.3438 c 6.4727,0 11.719,5.2461 11.719,11.719 0,6.4729 -5.2461,11.719 -11.719,11.719 z m -49.219,0 h -2.3438 c -6.4727,0 -11.719,-5.2461 -11.719,-11.719 0,-6.4729 5.2461,-11.719 11.719,-11.719 h 2.3438 c 6.4727,0 11.719,5.2461 11.719,11.719 0,6.4729 -5.2461,11.719 -11.719,11.719 z m -49.219,0 h -2.3438 c -6.4727,0 -11.719,-5.2461 -11.719,-11.719 0,-6.4729 5.2461,-11.719 11.719,-11.719 h 2.3438 c 6.4727,0 11.719,5.2461 11.719,11.719 0,6.4729 -5.2461,11.719 -11.719,11.719 z m -49.219,0 h -2.3438 c -6.4727,0 -11.719,-5.2461 -11.719,-11.719 0,-6.4729 5.2461,-11.719 11.719,-11.719 h 2.3438 c 6.4727,0 11.719,5.2461 11.719,11.719 0,6.4729 -5.2461,11.719 -11.719,11.719 z m -49.219,0 h -2.3438 c -6.4727,0 -11.719,-5.2461 -11.719,-11.719 0,-6.4729 5.2461,-11.719 11.719,-11.719 h 2.3438 c 6.4727,0 11.719,5.2461 11.719,11.719 0,6.4729 -5.2461,11.719 -11.719,11.719 z"
       id="path172" /><path
       d="m 850.78,986.72 h -2.3438 c -6.4727,0 -11.719,-5.2461 -11.719,-11.719 0,-6.4729 5.2461,-11.719 11.719,-11.719 h 2.3438 c 6.4727,0 11.719,5.2461 11.719,11.719 0,6.4729 -5.2461,11.719 -11.719,11.719 z m -49.219,0 h -2.3438 c -6.4727,0 -11.719,-5.2461 -11.719,-11.719 0,-6.4729 5.2461,-11.719 11.719,-11.719 h 2.3438 c 6.4727,0 11.719,5.2461 11.719,11.719 0,6.4729 -5.2461,11.719 -11.719,11.719 z m -49.219,0 h -2.3438 c -6.4727,0 -11.719,-5.2461 -11.719,-11.719 0,-6.4729 5.2461,-11.719 11.719,-11.719 h 2.3438 c 6.4727,0 11.719,5.2461 11.719,11.719 0,6.4729 -5.2461,11.719 -11.719,11.719 z m -49.219,0 h -2.3438 c -6.4727,0 -11.719,-5.2461 -11.719,-11.719 0,-6.4729 5.2461,-11.719 11.719,-11.719 h 2.3438 c 6.4727,0 11.719,5.2461 11.719,11.719 0,6.4729 -5.2461,11.719 -11.719,11.719 z m -49.219,0 h -2.3438 c -6.4727,0 -11.719,-5.2461 -11.719,-11.719 0,-6.4729 5.2461,-11.719 11.719,-11.719 h 2.3438 c 6.4727,0 11.719,5.2461 11.719,11.719 0,6.4729 -5.2461,11.719 -11.719,11.719 z m -49.219,0 h -2.3438 c -6.4727,0 -11.719,-5.2461 -11.719,-11.719 0,-6.4729 5.2461,-11.719 11.719,-11.719 h 2.3438 c 6.4727,0 11.719,5.2461 11.719,11.719 0,6.4729 -5.2461,11.719 -11.719,11.719 z"
       id="path174" /><path
       d="m 1012.5,801.56 c -6.4727,0 -11.719,-5.2461 -11.719,-11.719 v -2.3438 c 0,-6.4727 5.2461,-11.719 11.719,-11.719 6.4729,0 11.719,5.2461 11.719,11.719 v 2.3438 c 0,3.1094 -1.2344,6.0898 -3.4336,8.2852 -2.1953,2.1992 -5.1758,3.4336 -8.2852,3.4336 z m 0,-49.219 c -6.4727,0 -11.719,-5.2461 -11.719,-11.719 v -2.3438 c 0,-6.4727 5.2461,-11.719 11.719,-11.719 6.4729,0 11.719,5.2461 11.719,11.719 v 2.3438 c 0,3.1094 -1.2344,6.0898 -3.4336,8.2852 -2.1953,2.1992 -5.1758,3.4336 -8.2852,3.4336 z"
       id="path176" /><path
       d="m 489.84,801.56 c -6.4727,0 -11.719,-5.2461 -11.719,-11.719 v -2.3438 c 0,-6.4727 5.2461,-11.719 11.719,-11.719 6.4729,0 11.719,5.2461 11.719,11.719 v 2.3438 c 0,3.1094 -1.2344,6.0898 -3.4336,8.2852 -2.1953,2.1992 -5.1758,3.4336 -8.2852,3.4336 z m 0,-49.219 c -6.4727,0 -11.719,-5.2461 -11.719,-11.719 v -2.3438 c 0,-6.4727 5.2461,-11.719 11.719,-11.719 6.4729,0 11.719,5.2461 11.719,11.719 v 2.3438 c 0,3.1094 -1.2344,6.0898 -3.4336,8.2852 -2.1953,2.1992 -5.1758,3.4336 -8.2852,3.4336 z"
       id="path178" /><path
       d="m 337.5,801.56 c -6.4727,0 -11.719,-5.2461 -11.719,-11.719 v -2.3438 c 0,-6.4727 5.2461,-11.719 11.719,-11.719 6.4729,0 11.719,5.2461 11.719,11.719 v 2.3438 c 0,3.1094 -1.2344,6.0898 -3.4336,8.2852 -2.1953,2.1992 -5.1758,3.4336 -8.2852,3.4336 z m 0,-49.219 c -6.4727,0 -11.719,-5.2461 -11.719,-11.719 v -2.3438 c 0,-6.4727 5.2461,-11.719 11.719,-11.719 6.4729,0 11.719,5.2461 11.719,11.719 v 2.3438 c 0,3.1094 -1.2344,6.0898 -3.4336,8.2852 -2.1953,2.1992 -5.1758,3.4336 -8.2852,3.4336 z"
       id="path180" /><path
       d="m 189.84,801.56 c -6.4727,0 -11.719,-5.2461 -11.719,-11.719 v -2.3438 c 0,-6.4727 5.2461,-11.719 11.719,-11.719 6.4729,0 11.719,5.2461 11.719,11.719 v 2.3438 c 0,3.1094 -1.2344,6.0898 -3.4336,8.2852 -2.1953,2.1992 -5.1758,3.4336 -8.2852,3.4336 z m 0,-49.219 c -6.4727,0 -11.719,-5.2461 -11.719,-11.719 v -2.3438 c 0,-6.4727 5.2461,-11.719 11.719,-11.719 6.4729,0 11.719,5.2461 11.719,11.719 v 2.3438 c 0,3.1094 -1.2344,6.0898 -3.4336,8.2852 -2.1953,2.1992 -5.1758,3.4336 -8.2852,3.4336 z"
       id="path182" /></g><g
     id="g310"
     transform="matrix(1.2000241,0,0,1.2000241,2334.5661,-119.29493)"><path
       d="m 1018.8,700.8 c 0,-1.1992 1.1992,-3.6016 1.1992,-4.8008 0,-1.1992 0,-3.6016 -1.1992,-4.8008 v -1.1992 c 0,-1.1992 -1.1992,-2.3984 -2.3984,-4.8008 l -70.801,-96 c -6,-8.3984 -16.801,-9.6016 -25.199,-3.6016 -8.3984,6 -9.6016,16.801 -3.6016,25.199 l 50.398,68.398 -573.6,0.004 v -460.8 l 69.602,50.398 c 3.6016,2.3984 7.1992,3.6016 10.801,3.6016 6,0 10.801,-2.3984 14.398,-7.1992 6,-8.3984 3.6016,-19.199 -3.6016,-25.199 l -97.199,-70.801 c -2.4023,0 -3.6016,-1.1992 -6,-1.1992 h -1.1992 c -1.1992,0 -3.6016,-1.1992 -4.8008,-1.1992 -1.1992,0 -3.6016,0 -4.8008,1.1992 h -1.1992 c -1.1992,0 -3.6016,1.1992 -4.8008,2.3984 l -96,70.801 c -8.3984,6 -9.6016,16.801 -3.6016,25.199 6,8.3984 16.801,9.6016 25.199,3.6016 l 68.398,-50.398 v 458.4 h -184.8 c -9.6016,0 -18,8.3984 -18,18 0,9.6016 8.3984,18 18,18 h 184.8 v 300 c 0,9.6016 8.3984,18 18,18 9.6016,0 18,-8.3984 18,-18 V 714.00091 h 573.6 l -50.398,69.602 c -6,8.3984 -3.6016,19.199 3.6016,25.199 3.6016,2.3984 7.1992,3.6016 10.801,3.6016 6,0 10.801,-2.3984 14.398,-7.1992 l 70.801,-97.199 c 0,-3.6055 1.1953,-4.8047 1.1953,-7.2031 z"
       id="path302" /><path
       d="m 524.4,646.8 c -45.602,0 -82.801,-37.199 -82.801,-82.801 0,-45.602 37.199,-82.801 82.801,-82.801 45.602,0 82.801,37.199 82.801,82.801 -1.1992,45.602 -37.199,82.801 -82.801,82.801 z m 0,-129.6 c -26.398,0 -46.801,21.602 -46.801,46.801 0,25.199 21.602,46.801 46.801,46.801 25.199,0 46.801,-21.602 46.801,-46.801 0,-25.199 -21.598,-46.801 -46.801,-46.801 z"
       id="path304" /><path
       d="m 613.2,376.8 c -45.602,0 -82.801,-37.199 -82.801,-82.801 0,-45.602 37.199,-82.801 82.801,-82.801 45.602,0 82.801,37.199 82.801,82.801 0,45.602 -37.199,82.801 -82.801,82.801 z m 0,-128.4 c -26.398,0 -46.801,21.602 -46.801,46.801 0,25.199 21.602,46.801 46.801,46.801 25.199,0 46.801,-21.602 46.801,-46.801 0,-25.199 -20.398,-46.801 -46.801,-46.801 z"
       id="path306" /><path
       d="m 769.2,537.6 c -45.602,0 -82.801,-37.199 -82.801,-82.801 0,-45.602 37.199,-82.801 82.801,-82.801 45.602,0 82.801,37.199 82.801,82.801 0,45.598 -37.199,82.801 -82.801,82.801 z m 0,-128.4 c -26.398,0 -46.801,21.602 -46.801,46.801 0,25.199 21.602,46.801 46.801,46.801 26.398,0 46.801,-21.602 46.801,-46.801 0,-25.199 -20.398,-46.801 -46.801,-46.801 z"
       id="path308" /></g><g
     style="fill:currentColor"
     id="g386"
     transform="matrix(42.795833,0,0,42.795833,1457.6142,257.63334)"><path
       fill-rule="evenodd"
       d="M 1,8 A 0.5,0.5 0 0 1 1.5,7.5 H 13.293 L 10.146,4.354 a 0.5006316,0.5006316 0 0 1 0.708,-0.708 l 4,4 a 0.5,0.5 0 0 1 0,0.708 l -4,4 A 0.5006316,0.5006316 0 0 1 10.146,11.646 L 13.293,8.5 H 1.5 A 0.5,0.5 0 0 1 1,8 Z"
       id="path377" /></g></svg>
