<!--
based on

Noun Project:
https://thenounproject.com/browse/icons/term/matrix/
matrix by Jino
matrix by Marc Torrada

https://icons.getbootstrap.com/icons/arrow-right/

Subject to their relevant licenses.
-->
<svg xmlns="http://www.w3.org/2000/svg" xml:space="preserve" viewBox="0 0 3600 1200"><path d="M150 1117.96783355c-37.5 0-67.57-11.227-89.25-33.375-35.133-35.859-34.969-87.234-34.969-90.844v-787.5c0-120.23 122.74-124.22 123.98-124.22 6.4727-.13672 11.828 5 11.965 11.473.137 6.473-5 11.828-11.473 11.965-4.4297.11719-101.04 3.7969-101.04 100.78v787.73c0 .42188-.39844 45.094 28.406 74.344 17.109 17.391 41.461 26.203 72.375 26.203 6.4727 0 11.719 5.2461 11.719 11.719 0 6.4729-5.2461 11.719-11.719 11.719zM1052.3 1117.96783355c-6.4727.07-11.777-5.1172-11.848-11.59-.07-6.4727 5.1172-11.777 11.59-11.848 4.4297-.1172 101.04-3.7969 101.04-100.78v-787.73c0-.42188.3984-45.094-28.406-74.344-17.109-17.391-41.461-26.203-72.375-26.203-6.4727 0-11.719-5.2461-11.719-11.719 0-6.4729 5.2461-11.719 11.719-11.719 37.5 0 67.57 11.227 89.25 33.375 35.133 35.859 34.969 87.234 34.969 90.844v787.5c0 120.23-122.74 124.22-123.98 124.22zM339.84 295.27783355c-6.4727 0-11.719-5.2461-11.719-11.719v-112.5c0-6.4727 5.2461-11.719 11.719-11.719 6.4729 0 11.719 5.2461 11.719 11.719v112.5c0 3.1094-1.2344 6.0898-3.4336 8.2852-2.1953 2.1992-5.1758 3.4336-8.2852 3.4336zM187.5 482.77783355c-6.4727 0-11.719-5.2461-11.719-11.719v-112.5c0-6.4727 5.2461-11.719 11.719-11.719 6.4729 0 11.719 5.2461 11.719 11.719v112.5c0 3.1094-1.2344 6.0898-3.4336 8.2852-2.1953 2.1992-5.1758 3.4336-8.2852 3.4336zM489.84 482.77783355c-6.4727 0-11.719-5.2461-11.719-11.719v-112.5c0-6.4727 5.2461-11.719 11.719-11.719 6.4729 0 11.719 5.2461 11.719 11.719v112.5c0 3.1094-1.2344 6.0898-3.4336 8.2852-2.1953 2.1992-5.1758 3.4336-8.2852 3.4336zM489.84 672.62783355c-6.4727 0-11.719-5.2461-11.719-11.719v-112.5c0-6.4727 5.2461-11.719 11.719-11.719 6.4729 0 11.719 5.2461 11.719 11.719v112.5c0 3.1094-1.2344 6.0898-3.4336 8.2852-2.1953 2.1992-5.1758 3.4336-8.2852 3.4336zM337.5 1042.96783355c-6.4727 0-11.719-5.2461-11.719-11.719v-112.5c0-6.4727 5.2461-11.719 11.719-11.719 6.4729 0 11.719 5.2461 11.719 11.719v112.5c0 3.1094-1.2344 6.0898-3.4336 8.2852-2.1953 2.1992-5.1758 3.4336-8.2852 3.4336z"/><path d="M189.84 299.96783355c-37.828 0-51.562-30.844-51.562-51.562v-39.844c0-20.719 13.734-51.562 51.562-51.562 37.828 0 51.562 30.844 51.562 51.562v39.844c0 20.719-13.734 51.562-51.562 51.562zm0-119.53c-11.719 0-19.523 4.2188-24.094 12.867-2.3945 4.75-3.7656 9.9453-4.0312 15.258v39.844c.26562 5.3125 1.6367 10.508 4.0312 15.258 4.5703 8.6484 12.375 12.867 24.094 12.867 11.719 0 19.523-4.2188 24.094-12.867 2.3945-4.75 3.7656-9.9453 4.0312-15.258v-39.844c-.26562-5.3125-1.6367-10.508-4.0312-15.258-4.5703-8.6484-12.375-12.867-24.094-12.867zM489.84 299.96783355c-37.828 0-51.562-30.844-51.562-51.562v-39.844c0-20.719 13.734-51.562 51.562-51.562 37.828 0 51.562 30.844 51.562 51.562v39.844c0 20.719-13.734 51.562-51.562 51.562zm0-119.53c-11.719 0-19.523 4.2188-24.094 12.867-2.3945 4.75-3.7656 9.9453-4.0312 15.258v39.844c.26562 5.3125 1.6367 10.508 4.0312 15.258 4.5703 8.6484 12.375 12.867 24.094 12.867 11.719 0 19.523-4.2188 24.094-12.867 2.3945-4.75 3.7656-9.9453 4.0312-15.258v-39.844c-.26562-5.3125-1.6367-10.508-4.0312-15.258-4.5703-8.6484-12.375-12.867-24.094-12.867zM1012.5 482.77783355c-6.4727 0-11.719-5.2461-11.719-11.719v-112.5c0-6.4727 5.2461-11.719 11.719-11.719 6.4729 0 11.719 5.2461 11.719 11.719v112.5c0 3.1094-1.2344 6.0898-3.4336 8.2852-2.1953 2.1992-5.1758 3.4336-8.2852 3.4336zM1012.5 1042.96783355c-6.4727 0-11.719-5.2461-11.719-11.719v-112.5c0-6.4727 5.2461-11.719 11.719-11.719 6.4729 0 11.719 5.2461 11.719 11.719v112.5c0 3.1094-1.2344 6.0898-3.4336 8.2852-2.1953 2.1992-5.1758 3.4336-8.2852 3.4336zM1012.5 299.96783355c-37.828 0-51.562-30.844-51.562-51.562v-39.844c0-20.719 13.734-51.562 51.562-51.562 37.828 0 51.562 30.844 51.562 51.562v39.844c0 20.719-13.734 51.562-51.562 51.562zm0-119.53c-11.719 0-19.523 4.2188-24.094 12.867-2.3945 4.75-3.7656 9.9453-4.0312 15.258v39.844c.26562 5.3125 1.6367 10.508 4.0312 15.258 4.5703 8.6484 12.375 12.867 24.094 12.867 11.719 0 19.523-4.2188 24.094-12.867 2.3945-4.75 3.7656-9.9453 4.0312-15.258v-39.844c-.2656-5.3125-1.6367-10.508-4.0312-15.258-4.5703-8.6484-12.375-12.867-24.094-12.867zM1012.5 670.27783355c-37.828 0-51.562-30.844-51.562-51.562v-39.844c0-20.719 13.734-51.562 51.562-51.562 37.828 0 51.562 30.844 51.562 51.562v39.844c0 20.719-13.734 51.562-51.562 51.562zm0-119.53c-11.719 0-19.523 4.2188-24.094 12.867-2.3945 4.75-3.7656 9.9453-4.0312 15.258v39.844c.26562 5.3125 1.6367 10.508 4.0312 15.258 4.5703 8.6484 12.375 12.867 24.094 12.867 11.719 0 19.523-4.2188 24.094-12.867 2.3945-4.75 3.7656-9.9453 4.0312-15.258v-39.844c-.2656-5.3125-1.6367-10.508-4.0312-15.258-4.5703-8.6484-12.375-12.867-24.094-12.867zM337.5 482.77783355c-37.828 0-51.562-30.844-51.562-51.562v-39.844c0-20.719 13.734-51.562 51.562-51.562 37.828 0 51.562 30.844 51.562 51.562v39.844c0 20.719-13.734 51.562-51.562 51.562zm0-119.53c-11.719 0-19.523 4.2188-24.094 12.867-2.3945 4.75-3.7656 9.9453-4.0312 15.258v39.844c.26562 5.3125 1.6367 10.508 4.0312 15.258 4.5703 8.6484 12.375 12.867 24.094 12.867 11.719 0 19.523-4.2188 24.094-12.867 2.3945-4.75 3.7656-9.9453 4.0312-15.258v-39.844c-.26562-5.3125-1.6367-10.508-4.0312-15.258-4.5703-8.6484-12.375-12.867-24.094-12.867zM337.5 672.62783355c-37.828 0-51.562-30.844-51.562-51.562v-39.844c0-20.719 13.734-51.562 51.562-51.562 37.828 0 51.562 30.844 51.562 51.562v39.844c0 20.719-13.734 51.562-51.562 51.562zm0-119.53c-11.719 0-19.523 4.2188-24.094 12.867-2.3945 4.75-3.7656 9.9453-4.0312 15.258v39.844c.26562 5.3125 1.6367 10.508 4.0312 15.258 4.5703 8.6484 12.375 12.867 24.094 12.867 11.719 0 19.523-4.2188 24.094-12.867 2.3945-4.75 3.7656-9.9453 4.0312-15.258v-39.844c-.26562-5.3125-1.6367-10.508-4.0312-15.258-4.5703-8.6484-12.375-12.867-24.094-12.867zM189.84 672.62783355c-37.828 0-51.562-30.844-51.562-51.562v-39.844c0-20.719 13.734-51.562 51.562-51.562 37.828 0 51.562 30.844 51.562 51.562v39.844c0 20.719-13.734 51.562-51.562 51.562zm0-119.53c-11.719 0-19.523 4.2188-24.094 12.867-2.3945 4.75-3.7656 9.9453-4.0312 15.258v39.844c.26562 5.3125 1.6367 10.508 4.0312 15.258 4.5703 8.6484 12.375 12.867 24.094 12.867 11.719 0 19.523-4.2188 24.094-12.867 2.3945-4.75 3.7656-9.9453 4.0312-15.258v-39.844c-.26562-5.3125-1.6367-10.508-4.0312-15.258-4.5703-8.6484-12.375-12.867-24.094-12.867zM489.84 1045.26783355c-37.828 0-51.562-30.844-51.562-51.562v-39.844c0-20.719 13.734-51.562 51.562-51.562 37.828 0 51.562 30.844 51.562 51.562v39.844c0 20.719-13.734 51.562-51.562 51.562zm0-119.53c-11.719 0-19.523 4.2188-24.094 12.867-2.3945 4.75-3.7656 9.9453-4.0312 15.258v39.844c.26562 5.3125 1.6367 10.508 4.0312 15.258 4.5703 8.6484 12.375 12.867 24.094 12.867 11.719 0 19.523-4.2188 24.094-12.867 2.3945-4.75 3.7656-9.9453 4.0312-15.258v-39.844c-.26562-5.3125-1.6367-10.508-4.0312-15.258-4.5703-8.6484-12.375-12.867-24.094-12.867zM187.5 1045.26783355c-37.828 0-51.562-30.844-51.562-51.562v-39.844c0-20.719 13.734-51.562 51.562-51.562 37.828 0 51.562 30.844 51.562 51.562v39.844c0 20.719-13.734 51.562-51.562 51.562zm0-119.53c-11.719 0-19.523 4.2188-24.094 12.867-2.3945 4.75-3.7656 9.9453-4.0312 15.258v39.844c.26562 5.3125 1.6367 10.508 4.0312 15.258 4.5703 8.6484 12.375 12.867 24.094 12.867 11.719 0 19.523-4.2188 24.094-12.867 2.3945-4.75 3.7656-9.9453 4.0312-15.258v-39.844c-.26562-5.3125-1.6367-10.508-4.0312-15.258-4.5703-8.6484-12.375-12.867-24.094-12.867zM850.78 236.68783355h-2.3438c-6.4727 0-11.719-5.2461-11.719-11.719 0-6.4729 5.2461-11.719 11.719-11.719h2.3438c6.4727 0 11.719 5.2461 11.719 11.719 0 6.4729-5.2461 11.719-11.719 11.719zm-49.219 0h-2.3438c-6.4727 0-11.719-5.2461-11.719-11.719 0-6.4729 5.2461-11.719 11.719-11.719h2.3438c6.4727 0 11.719 5.2461 11.719 11.719 0 6.4729-5.2461 11.719-11.719 11.719zm-49.219 0h-2.3438c-6.4727 0-11.719-5.2461-11.719-11.719 0-6.4729 5.2461-11.719 11.719-11.719h2.3438c6.4727 0 11.719 5.2461 11.719 11.719 0 6.4729-5.2461 11.719-11.719 11.719zm-49.219 0h-2.3438c-6.4727 0-11.719-5.2461-11.719-11.719 0-6.4729 5.2461-11.719 11.719-11.719h2.3438c6.4727 0 11.719 5.2461 11.719 11.719 0 6.4729-5.2461 11.719-11.719 11.719zm-49.219 0h-2.3438c-6.4727 0-11.719-5.2461-11.719-11.719 0-6.4729 5.2461-11.719 11.719-11.719h2.3438c6.4727 0 11.719 5.2461 11.719 11.719 0 6.4729-5.2461 11.719-11.719 11.719zm-49.219 0h-2.3438c-6.4727 0-11.719-5.2461-11.719-11.719 0-6.4729 5.2461-11.719 11.719-11.719h2.3438c6.4727 0 11.719 5.2461 11.719 11.719 0 6.4729-5.2461 11.719-11.719 11.719zM850.78 424.18783355h-2.3438c-6.4727 0-11.719-5.2461-11.719-11.719 0-6.4729 5.2461-11.719 11.719-11.719h2.3438c6.4727 0 11.719 5.2461 11.719 11.719 0 6.4729-5.2461 11.719-11.719 11.719zm-49.219 0h-2.3438c-6.4727 0-11.719-5.2461-11.719-11.719 0-6.4729 5.2461-11.719 11.719-11.719h2.3438c6.4727 0 11.719 5.2461 11.719 11.719 0 6.4729-5.2461 11.719-11.719 11.719zm-49.219 0h-2.3438c-6.4727 0-11.719-5.2461-11.719-11.719 0-6.4729 5.2461-11.719 11.719-11.719h2.3438c6.4727 0 11.719 5.2461 11.719 11.719 0 6.4729-5.2461 11.719-11.719 11.719zm-49.219 0h-2.3438c-6.4727 0-11.719-5.2461-11.719-11.719 0-6.4729 5.2461-11.719 11.719-11.719h2.3438c6.4727 0 11.719 5.2461 11.719 11.719 0 6.4729-5.2461 11.719-11.719 11.719zm-49.219 0h-2.3438c-6.4727 0-11.719-5.2461-11.719-11.719 0-6.4729 5.2461-11.719 11.719-11.719h2.3438c6.4727 0 11.719 5.2461 11.719 11.719 0 6.4729-5.2461 11.719-11.719 11.719zm-49.219 0h-2.3438c-6.4727 0-11.719-5.2461-11.719-11.719 0-6.4729 5.2461-11.719 11.719-11.719h2.3438c6.4727 0 11.719 5.2461 11.719 11.719 0 6.4729-5.2461 11.719-11.719 11.719zM850.78 611.68783355h-2.3438c-6.4727 0-11.719-5.2461-11.719-11.719 0-6.4729 5.2461-11.719 11.719-11.719h2.3438c6.4727 0 11.719 5.2461 11.719 11.719 0 6.4729-5.2461 11.719-11.719 11.719zm-49.219 0h-2.3438c-6.4727 0-11.719-5.2461-11.719-11.719 0-6.4729 5.2461-11.719 11.719-11.719h2.3438c6.4727 0 11.719 5.2461 11.719 11.719 0 6.4729-5.2461 11.719-11.719 11.719zm-49.219 0h-2.3438c-6.4727 0-11.719-5.2461-11.719-11.719 0-6.4729 5.2461-11.719 11.719-11.719h2.3438c6.4727 0 11.719 5.2461 11.719 11.719 0 6.4729-5.2461 11.719-11.719 11.719zm-49.219 0h-2.3438c-6.4727 0-11.719-5.2461-11.719-11.719 0-6.4729 5.2461-11.719 11.719-11.719h2.3438c6.4727 0 11.719 5.2461 11.719 11.719 0 6.4729-5.2461 11.719-11.719 11.719zm-49.219 0h-2.3438c-6.4727 0-11.719-5.2461-11.719-11.719 0-6.4729 5.2461-11.719 11.719-11.719h2.3438c6.4727 0 11.719 5.2461 11.719 11.719 0 6.4729-5.2461 11.719-11.719 11.719zm-49.219 0h-2.3438c-6.4727 0-11.719-5.2461-11.719-11.719 0-6.4729 5.2461-11.719 11.719-11.719h2.3438c6.4727 0 11.719 5.2461 11.719 11.719 0 6.4729-5.2461 11.719-11.719 11.719zM850.78 986.68783355h-2.3438c-6.4727 0-11.719-5.2461-11.719-11.719 0-6.4729 5.2461-11.719 11.719-11.719h2.3438c6.4727 0 11.719 5.2461 11.719 11.719 0 6.4729-5.2461 11.719-11.719 11.719zm-49.219 0h-2.3438c-6.4727 0-11.719-5.2461-11.719-11.719 0-6.4729 5.2461-11.719 11.719-11.719h2.3438c6.4727 0 11.719 5.2461 11.719 11.719 0 6.4729-5.2461 11.719-11.719 11.719zm-49.219 0h-2.3438c-6.4727 0-11.719-5.2461-11.719-11.719 0-6.4729 5.2461-11.719 11.719-11.719h2.3438c6.4727 0 11.719 5.2461 11.719 11.719 0 6.4729-5.2461 11.719-11.719 11.719zm-49.219 0h-2.3438c-6.4727 0-11.719-5.2461-11.719-11.719 0-6.4729 5.2461-11.719 11.719-11.719h2.3438c6.4727 0 11.719 5.2461 11.719 11.719 0 6.4729-5.2461 11.719-11.719 11.719zm-49.219 0h-2.3438c-6.4727 0-11.719-5.2461-11.719-11.719 0-6.4729 5.2461-11.719 11.719-11.719h2.3438c6.4727 0 11.719 5.2461 11.719 11.719 0 6.4729-5.2461 11.719-11.719 11.719zm-49.219 0h-2.3438c-6.4727 0-11.719-5.2461-11.719-11.719 0-6.4729 5.2461-11.719 11.719-11.719h2.3438c6.4727 0 11.719 5.2461 11.719 11.719 0 6.4729-5.2461 11.719-11.719 11.719zM1012.5 801.52783355c-6.4727 0-11.719-5.2461-11.719-11.719v-2.3438c0-6.4727 5.2461-11.719 11.719-11.719 6.4729 0 11.719 5.2461 11.719 11.719v2.3438c0 3.1094-1.2344 6.0898-3.4336 8.2852-2.1953 2.1992-5.1758 3.4336-8.2852 3.4336zm0-49.219c-6.4727 0-11.719-5.2461-11.719-11.719v-2.3438c0-6.4727 5.2461-11.719 11.719-11.719 6.4729 0 11.719 5.2461 11.719 11.719v2.3438c0 3.1094-1.2344 6.0898-3.4336 8.2852-2.1953 2.1992-5.1758 3.4336-8.2852 3.4336zM489.84 801.52783355c-6.4727 0-11.719-5.2461-11.719-11.719v-2.3438c0-6.4727 5.2461-11.719 11.719-11.719 6.4729 0 11.719 5.2461 11.719 11.719v2.3438c0 3.1094-1.2344 6.0898-3.4336 8.2852-2.1953 2.1992-5.1758 3.4336-8.2852 3.4336zm0-49.219c-6.4727 0-11.719-5.2461-11.719-11.719v-2.3438c0-6.4727 5.2461-11.719 11.719-11.719 6.4729 0 11.719 5.2461 11.719 11.719v2.3438c0 3.1094-1.2344 6.0898-3.4336 8.2852-2.1953 2.1992-5.1758 3.4336-8.2852 3.4336zM337.5 801.52783355c-6.4727 0-11.719-5.2461-11.719-11.719v-2.3438c0-6.4727 5.2461-11.719 11.719-11.719 6.4729 0 11.719 5.2461 11.719 11.719v2.3438c0 3.1094-1.2344 6.0898-3.4336 8.2852-2.1953 2.1992-5.1758 3.4336-8.2852 3.4336zm0-49.219c-6.4727 0-11.719-5.2461-11.719-11.719v-2.3438c0-6.4727 5.2461-11.719 11.719-11.719 6.4729 0 11.719 5.2461 11.719 11.719v2.3438c0 3.1094-1.2344 6.0898-3.4336 8.2852-2.1953 2.1992-5.1758 3.4336-8.2852 3.4336zM189.84 801.52783355c-6.4727 0-11.719-5.2461-11.719-11.719v-2.3438c0-6.4727 5.2461-11.719 11.719-11.719 6.4729 0 11.719 5.2461 11.719 11.719v2.3438c0 3.1094-1.2344 6.0898-3.4336 8.2852-2.1953 2.1992-5.1758 3.4336-8.2852 3.4336zm0-49.219c-6.4727 0-11.719-5.2461-11.719-11.719v-2.3438c0-6.4727 5.2461-11.719 11.719-11.719 6.4729 0 11.719 5.2461 11.719 11.719v2.3438c0 3.1094-1.2344 6.0898-3.4336 8.2852-2.1953 2.1992-5.1758 3.4336-8.2852 3.4336zM3557.15065308 721.68195928c0-1.4390689 1.4390689-4.3220068 1.4390689-5.7610757 0-1.4390689 0-4.3220068-1.4390689-5.7610757v-1.4390689c0-1.4390689-1.4390689-2.8781378-2.8781378-5.7610757l-84.9629063-115.2023136c-7.2001446-10.0782824-20.16160491-11.5221514-30.2394073-4.3220068-10.0782824 7.2001446-11.5221514 20.1616049-4.3220068 30.2394073l60.4788146 82.0792484-688.33382377.00480009V142.78769339l83.52407741 60.47881459c4.3220068 2.8781378 8.6392135 4.3220068 12.9614603 4.3220068 7.2001446 0 12.9614603-2.8781378 17.277947-8.6392135 7.2001446-10.0782824 4.3220068-23.0392627-4.3220068-30.2394073l-116.6411425-84.9629063c-2.8828179 0-4.3220068-1.4390689-7.2001446-1.4390689h-1.4390689c-1.4390689 0-4.3220068-1.4390689-5.7610757-1.4390689-1.4390689 0-4.3220068 0-5.7610757 1.4390689h-1.4390689c-1.4390689 0-4.3220068 1.4390689-5.7610757 2.8781378l-115.2023136 84.9629063c-10.0782824 7.2001446-11.5221514 20.1616049-4.3220068 30.2394073 7.2001446 10.0782824 20.1616049 11.5221514 30.2394073 4.3220068l82.0792484-60.4788146v550.09104744h-221.76445369c-11.5221514 0-21.6004338 10.0782824-21.6004338 21.6004338s10.0782824 21.6004338 21.6004338 21.6004338h221.76445368v360.00723c0 11.5221514 10.0782824 21.6004338 21.6004338 21.6004338s21.6004338-10.0782824 21.6004338-21.6004338v-360.007338h688.33382376l-60.4788146 83.52407741c-7.2001446 10.0782824-4.32200679 23.0392627 4.3220068 30.2394073 4.3220068 2.8781378 8.6392135 4.3220068 12.96146031 4.3220068 7.2001446 0 12.9614603-2.8781378 17.277947-8.6392135l84.9629063-116.6411425c0-4.3266869 1.4343888-5.7657558 1.4343888-8.6438936z"/><path d="M2963.85873804 656.88065788c-54.723499 0-99.3631955-44.6396965-99.3631955-99.3631955 0-54.72349901 44.6396965-99.3631955 99.3631955-99.3631955 54.723499 0 99.3631955 44.63969649 99.3631955 99.3631955-1.4390689 54.723499-44.6396965 99.3631955-99.3631955 99.3631955zm0-155.52312336c-31.6782362 0-56.1623279 25.9229206-56.1623279 56.1623279s25.9229206 56.1623279 56.1623279 56.1623279 56.1623279-25.9229206 56.1623279-56.1623279-25.9181205-56.1623279-56.1623279-56.1623279zM3070.42087812 332.87415088c-54.723499 0-99.3631955-44.6396965-99.3631955-99.3631955 0-54.72349901 44.6396965-99.3631955 99.3631955-99.3631955 54.723499 0 99.3631955 44.63969649 99.3631955 99.3631955 0 54.723499-44.6396965 99.3631955-99.3631955 99.3631955zm0-154.08309444c-31.6782362 0-56.1623279 25.9229206-56.1623279 56.1623279s25.9229206 56.1623279 56.1623279 56.1623279 56.1623279-25.9229206 56.1623279-56.1623279-24.47809159-56.1623279-56.1623279-56.1623279zM3257.62463772 525.83802616c-54.723499 0-99.3631955-44.6396965-99.3631955-99.3631955 0-54.72349901 44.6396965-99.3631955 99.3631955-99.3631955 54.723499 0 99.3631955 44.63969649 99.3631955 99.3631955 0 54.7186989-44.6396965 99.3631955-99.3631955 99.3631955zm0-154.08309444c-31.6782362 0-56.1623279 25.9229206-56.1623279 56.1623279s25.9229206 56.1623279 56.1623279 56.1623279c31.6782362 0 56.1623279-25.9229206 56.1623279-56.1623279s-24.47809159-56.1623279-56.1623279-56.1623279z"/><path fill-rule="evenodd" d="M1 8a.5.5 0 0 1 .5-.5h11.793l-3.147-3.146a.5006316.5006316 0 0 1 .708-.708l4 4a.5.5 0 0 1 0 .708l-4 4a.5006316.5006316 0 0 1-.708-.708L13.293 8.5H1.5A.5.5 0 0 1 1 8Z" style="fill:currentColor" transform="translate(1457.6142 257.63334) scale(42.795833)"/></svg>