<svg xmlns="http://www.w3.org/2000/svg" xml:space="preserve" width="110.0387mm" height="23.37731mm" viewBox="0 0 110.0387 23.37731"><g style="fill:currentColor"><path d="M8.5109969 8.1424339a2.1277326 2.1277326 0 1 1-4.2554652 0 2.1277326 2.1277326 0 0 1 4.2554652 0z"/><path d="M2.83697677 1.7592361A2.8369768 2.8369768 0 0 0 0 4.5962129v14.184884a2.8369768 2.8369768 0 0 0 2.83697677 2.8369768h17.02186066a2.8369768 2.8369768 0 0 0 2.8369768-2.8369768V4.5962129a2.8369768 2.8369768 0 0 0-2.8369768-2.8369768zm0 1.4184884h17.02186066a1.4184884 1.4184884 0 0 1 1.4184884 1.4184884v9.2201746l-5.35811865-2.76217367a.7092442.7092442 0 0 0-.81729188.1329833l-5.2639225 5.26115162-3.77340072-2.51283035a.7092442.7092442 0 0 0-.89209629.08865552L1.41848837 17.3626085V4.5962129a1.4184884 1.4184884 0 0 1 1.4184884-1.4184884zM13.44793499 14.603206a1.06924284 1.073563 0 1 1 0 2.14712475 1.06924284 1.073563 0 0 1 0-2.14712476zm5.41075747.72032542a1.2044503 1.20931677 0 1 1 0 2.41863337 1.2044503 1.20931677 0 0 1 0-2.41863337zm-13.38144337.3518518a1.20437695 1.20924312 0 1 1 0 2.41586305 1.20437695 1.20924312 0 0 1 0-2.41586305zm7.9706859 1.43233994c1.781118 0 2.13881397 1.0719077 2.13881397 1.42957105 0 .35766334-.3573924.3573924-.3573924.3573924H11.666513s-.3546221.00027094-.3546221-.3573924.35492665-1.42957105 2.13604409-1.42957105zm5.41075747 1.0361618c2.0072916 0 2.40755214 1.2093408 2.40755214 1.61242271 0 .4030805-.4017216.40449048-.40172017.40449048h-4.01443424s-.40172017-.00140997-.40172017-.40449048c0-.40308191.40303086-1.61242271 2.41032244-1.61242271zm-13.38144337.3518518c2.00729088 0 2.4075517 1.2093422 2.4075517 1.6124227 0 .4030805-.4017203.40172018-.4017203.40172018h-4.0144331s-.40172032.00136033-.40172032-.40172017.40303128-1.61242272 2.41032202-1.61242272z"/></g><path fill-rule="evenodd" d="M1 8a.5.5 0 0 1 .5-.5h11.793l-3.147-3.146a.5006316.5006316 0 0 1 .708-.708l4 4a.5.5 0 0 1 0 .708l-4 4a.5006316.5006316 0 0 1-.708-.708L13.293 8.5H1.5A.5.5 0 0 1 1 8Z" style="fill:currentColor" transform="translate(30.438028 4.4831861) scale(.9006836)"/><path d="M5 0a.5.5 0 0 1 .5.5V2h1V.5a.5.5 0 0 1 1 0V2h1V.5a.5.5 0 0 1 1 0V2h1V.5a.5.5 0 0 1 1 0V2A2.5 2.5 0 0 1 14 4.5h1.5a.5.5 0 0 1 0 1H14v1h1.5a.5.5 0 0 1 0 1H14v1h1.5a.5.5 0 0 1 0 1H14v1h1.5a.5.5 0 0 1 0 1H14a2.5 2.5 0 0 1-2.5 2.5v1.5a.5.5 0 0 1-1 0V14h-1v1.5a.5.5 0 0 1-1 0V14h-1v1.5a.5.5 0 0 1-1 0V14h-1v1.5a.5.5 0 0 1-1 0V14A2.5 2.5 0 0 1 2 11.5H.5a.5.5 0 0 1 0-1H2v-1H.5a.5.5 0 0 1 0-1H2v-1H.5a.5.5 0 0 1 0-1H2v-1H.5a.5.5 0 0 1 0-1H2A2.5 2.5 0 0 1 4.5 2V.5A.5.5 0 0 1 5 0Zm-.5 3A1.5 1.5 0 0 0 3 4.5v7A1.5 1.5 0 0 0 4.5 13h7a1.5 1.5 0 0 0 1.5-1.5v-7A1.5 1.5 0 0 0 11.5 3ZM5 6.5A1.5 1.5 0 0 1 6.5 5h3A1.5 1.5 0 0 1 11 6.5v3A1.5 1.5 0 0 1 9.5 11h-3A1.5 1.5 0 0 1 5 9.5ZM6.5 6a.5.5 0 0 0-.5.5v3a.5.5 0 0 0 .5.5h3a.5.5 0 0 0 .5-.5v-3a.5.5 0 0 0-.5-.5Z" style="fill:currentColor" transform="matrix(1.4084465 0 0 1.3509338 52.591985 .8811845)"/><path fill-rule="evenodd" d="M1 8a.5.5 0 0 1 .5-.5h11.793l-3.147-3.146a.5006316.5006316 0 0 1 .708-.708l4 4a.5.5 0 0 1 0 .708l-4 4a.5006316.5006316 0 0 1-.708-.708L13.293 8.5H1.5A.5.5 0 0 1 1 8Z" style="fill:currentColor" transform="translate(82.869343 4.4831861) scale(.9006836)"/><path d="M3 14s-1 0-1-1 1-4 6-4 6 3 6 4-1 1-1 1zm5-6a3 3 0 1 0 0-6 3 3 0 0 0 0 6Z" style="fill:currentColor" transform="translate(104.1873992 -.805854) scale(.41795045)"/><path d="M3 14s-1 0-1-1 1-4 6-4 6 3 6 4-1 1-1 1zm5-6a3 3 0 1 0 0-6 3 3 0 0 0 0 6Z" style="fill:currentColor" transform="translate(104.1873992 17.495956) scale(.41795045)"/><path d="M3 14s-1 0-1-1 1-4 6-4 6 3 6 4-1 1-1 1zm5-6a3 3 0 1 0 0-6 3 3 0 0 0 0 6Z" style="fill:currentColor" transform="translate(104.1873992 8.345051) scale(.41795045)"/></svg>