<svg xmlns="http://www.w3.org/2000/svg" xml:space="preserve" viewBox="0 0 73.001549 21.69067"><path d="M4.3167782 12.840099s-.516032-.16473-.600262-.92206c-.08681-.78059.18289-3.2000701 3.41078-2.7693601 4.3702098.58315 5.2291998 4.1639801 5.1659098 5.2129101-.06065 1.0054-1.00933.7026-1.00933.7026zm2.767048-4.7296201c.83745.07668 1.65602-.49955 2.12812-1.57932.51001-1.16644.51928-2.689051-.01119-3.92037-.53244-1.2359-1.47758-1.87488007-2.41774-1.68469007-.872765.17657007-1.57671 1.03963007-1.878228 2.20495807-.281319 1.087259-.181087 2.323092.2470009 3.297302.4268301.97136 1.1478671 1.61032 1.9320371 1.68212z" style="fill:currentColor" transform="translate(-5.65179 -1.362761) scale(1.526012)"/><path d="M3 14s-1 0-1-1 1-4 6-4 6 3 6 4-1 1-1 1zm5-6a3 3 0 1 0 0-6 3 3 0 0 0 0 6Z" style="fill:currentColor" transform="translate(47.695769 -3.615111) scale(1.8075557)"/><path fill-rule="evenodd" d="M1 8a.5.5 0 0 1 .5-.5h11.793l-3.147-3.146a.5006316.5006316 0 0 1 .708-.708l4 4a.5.5 0 0 1 0 .708l-4 4a.5006316.5006316 0 0 1-.708-.708L13.293 8.5H1.5A.5.5 0 0 1 1 8Z" style="fill:currentColor" transform="translate(23.319659 1.953749) scale(1.1114482)"/></svg>