<svg xmlns="http://www.w3.org/2000/svg" xml:space="preserve" viewBox="0 0 145 18.510001"><path d="M4.3167782 12.840099s-.516032-.16473-.600262-.92206c-.08681-.78059.18289-3.2000701 3.41078-2.7693601 4.3702098.58315 5.2291998 4.1639801 5.1659098 5.2129101-.06065 1.0054-1.00933.7026-1.00933.7026zm2.767048-4.7296201c.83745.07668 1.65602-.49955 2.12812-1.57932.51001-1.16644.51928-2.689051-.01119-3.92037-.53244-1.2359-1.47758-1.87488007-2.41774-1.68469007-.872765.17657007-1.57671 1.03963007-1.878228 2.20495807-.281319 1.087259-.181087 2.323092.2470009 3.297302.4268301.97136 1.1478671 1.61032 1.9320371 1.68212z" style="fill:#999;fill-opacity:1" transform="translate(-4.8229101 -1.162681) scale(1.3022101)"/><path d="M3 14s-1 0-1-1 1-4 6-4 6 3 6 4-1 1-1 1zm5-6a3 3 0 1 0 0-6 3 3 0 0 0 0 6Z" style="fill:currentColor" transform="translate(34.198543 -3.084707) scale(1.5424633)"/><path d="M5 0a.5.5 0 0 1 .5.5V2h1V.5a.5.5 0 0 1 1 0V2h1V.5a.5.5 0 0 1 1 0V2h1V.5a.5.5 0 0 1 1 0V2A2.5 2.5 0 0 1 14 4.5h1.5a.5.5 0 0 1 0 1H14v1h1.5a.5.5 0 0 1 0 1H14v1h1.5a.5.5 0 0 1 0 1H14v1h1.5a.5.5 0 0 1 0 1H14a2.5 2.5 0 0 1-2.5 2.5v1.5a.5.5 0 0 1-1 0V14h-1v1.5a.5.5 0 0 1-1 0V14h-1v1.5a.5.5 0 0 1-1 0V14h-1v1.5a.5.5 0 0 1-1 0V14A2.5 2.5 0 0 1 2 11.5H.5a.5.5 0 0 1 0-1H2v-1H.5a.5.5 0 0 1 0-1H2v-1H.5a.5.5 0 0 1 0-1H2v-1H.5a.5.5 0 0 1 0-1H2A2.5 2.5 0 0 1 4.5 2V.5A.5.5 0 0 1 5 0Zm-.5 3A1.5 1.5 0 0 0 3 4.5v7A1.5 1.5 0 0 0 4.5 13h7a1.5 1.5 0 0 0 1.5-1.5v-7A1.5 1.5 0 0 0 11.5 3ZM5 6.5A1.5 1.5 0 0 1 6.5 5h3A1.5 1.5 0 0 1 11 6.5v3A1.5 1.5 0 0 1 9.5 11h-3A1.5 1.5 0 0 1 5 9.5ZM6.5 6a.5.5 0 0 0-.5.5v3a.5.5 0 0 0 .5.5h3a.5.5 0 0 0 .5-.5v-3a.5.5 0 0 0-.5-.5Z" style="fill:currentColor" transform="translate(81.886956 .00022) scale(1.1568475)"/><g style="fill:currentColor"><path d="M128.22571525 1.1570675a.57842375.57842375 0 0 0-.57842375.57842375v3.4705425a.57842375.57842375 0 0 1-1.1568475 0v-3.4705425A1.73527125 1.73527125 0 0 1 128.22571525.00022h3.4705425a.57842375.57842375 0 0 1 0 1.1568475zM139.2157665.57864375A.57842375.57842375 0 0 1 139.79419025.00022h3.4705425a1.73527125 1.73527125 0 0 1 1.73527125 1.73527125v3.4705425a.57842375.57842375 0 0 1-1.1568475 0v-3.4705425a.57842375.57842375 0 0 0-.57842375-.57842375h-3.4705425a.57842375.57842375 0 0 1-.57842375-.57842375ZM127.06886775 12.7255425a.57842375.57842375 0 0 1 .57842375.57842375v3.4705425a.57842375.57842375 0 0 0 .57842375.57842375h3.4705425a.57842375.57842375 0 0 1 0 1.1568475h-3.4705425a1.73527125 1.73527125 0 0 1-1.73527125-1.73527125v-3.4705425a.57842375.57842375 0 0 1 .57842375-.57842375Zm17.3527125 0a.57842375.57842375 0 0 1 .57842375.57842375v3.4705425a1.73527125 1.73527125 0 0 1-1.73527125 1.73527125h-3.4705425a.57842375.57842375 0 0 1 0-1.1568475h3.4705425a.57842375.57842375 0 0 0 .57842375-.57842375v-3.4705425a.57842375.57842375 0 0 1 .57842375-.57842375Z"/><path d="M129.9609865 16.196085s-1.1568475 0-1.1568475-1.1568475 1.1568475-4.62739 6.941085-4.62739 6.941085 3.4705425 6.941085 4.62739-1.1568475 1.1568475-1.1568475 1.1568475zm9.25478-10.4116275a3.4705425 3.4705425 0 1 1-6.941085 0 3.4705425 3.4705425 0 0 1 6.941085 0z"/></g><path fill-rule="evenodd" d="M1 8a.5.5 0 0 1 .5-.5h11.793l-3.147-3.146a.5006316.5006316 0 0 1 .708-.708l4 4a.5.5 0 0 1 0 .708l-4 4a.5006316.5006316 0 0 1-.708-.708L13.293 8.5H1.5A.5.5 0 0 1 1 8Z" style="fill:currentColor" transform="translate(62.44602 2.861384) scale(.79920197)"/><path fill-rule="evenodd" d="M1 8a.5.5 0 0 1 .5-.5h11.793l-3.147-3.146a.5006316.5006316 0 0 1 .708-.708l4 4a.5.5 0 0 1 0 .708l-4 4a.5006316.5006316 0 0 1-.708-.708L13.293 8.5H1.5A.5.5 0 0 1 1 8Z" style="fill:#999;fill-opacity:1" transform="translate(17.842532 2.861384) scale(.79920197)"/><path fill-rule="evenodd" d="M1 8a.5.5 0 0 1 .5-.5h11.793l-3.147-3.146a.5006316.5006316 0 0 1 .708-.708l4 4a.5.5 0 0 1 0 .708l-4 4a.5006316.5006316 0 0 1-.708-.708L13.293 8.5H1.5A.5.5 0 0 1 1 8Z" style="fill:currentColor" transform="translate(107.049504 2.861384) scale(.79920197)"/></svg>