<?xml version="1.0" encoding="UTF-8" standalone="no"?>
<svg
   width="16"
   height="16"
   fill="currentColor"
   class="bi bi-image"
   viewBox="0 0 16 16"
   version="1.1"
   id="svg1059"
   sodipodi:docname="image-with-3people.svg"
   xml:space="preserve"
   inkscape:version="1.2.2 (b0a8486541, 2022-12-01)"
   xmlns:inkscape="http://www.inkscape.org/namespaces/inkscape"
   xmlns:sodipodi="http://sodipodi.sourceforge.net/DTD/sodipodi-0.dtd"
   xmlns="http://www.w3.org/2000/svg"
   xmlns:svg="http://www.w3.org/2000/svg"><defs
     id="defs1063" /><sodipodi:namedview
     id="namedview1061"
     pagecolor="#ffffff"
     bordercolor="#666666"
     borderopacity="1.0"
     inkscape:showpageshadow="2"
     inkscape:pageopacity="0.0"
     inkscape:pagecheckerboard="0"
     inkscape:deskcolor="#d1d1d1"
     showgrid="false"
     inkscape:zoom="72.875"
     inkscape:cx="7.9931389"
     inkscape:cy="8"
     inkscape:window-width="2560"
     inkscape:window-height="1369"
     inkscape:window-x="-8"
     inkscape:window-y="-8"
     inkscape:window-maximized="1"
     inkscape:current-layer="svg1059" /><path
     d="M6.002 5.5a1.5 1.5 0 1 1-3 0 1.5 1.5 0 0 1 3 0z"
     id="path1055" /><path
     id="path1057"
     d="M 2.0019531 1 A 2 2 0 0 0 0.001953125 3 L 0.001953125 13 A 2 2 0 0 0 2.0019531 15 L 14.001953 15 A 2 2 0 0 0 16.001953 13 L 16.001953 3 A 2 2 0 0 0 14.001953 1 L 2.0019531 1 z M 2.0019531 2 L 14.001953 2 A 1 1 0 0 1 15.001953 3 L 15.001953 9.5 L 11.224609 7.5527344 A 0.5 0.5 0 0 0 10.648438 7.6464844 L 6.9375 11.355469 L 4.2773438 9.5839844 A 0.5 0.5 0 0 0 3.6484375 9.6464844 L 1.0019531 12 L 1.0019531 3 A 1 1 0 0 1 2.0019531 2 z M 9.4824219 10.054688 A 0.75379033 0.75683594 0 1 1 9.4824219 11.568359 A 0.75379033 0.75683594 0 0 1 9.4824219 10.054688 z M 13.296875 10.5625 A 0.84910832 0.85253906 0 1 1 13.296875 12.267578 A 0.84910832 0.85253906 0 0 1 13.296875 10.5625 z M 3.8632812 10.810547 A 0.84905661 0.85248714 0 1 1 3.8632812 12.513672 A 0.84905661 0.85248714 0 0 1 3.8632812 10.810547 z M 9.4824219 11.820312 C 10.738067 11.820312 10.990234 12.575981 10.990234 12.828125 C 10.990234 13.080269 10.738281 13.080078 10.738281 13.080078 L 8.2265625 13.080078 C 8.2265625 13.080078 7.9765625 13.080269 7.9765625 12.828125 C 7.9765625 12.575981 8.2267772 11.820312 9.4824219 11.820312 z M 13.296875 12.550781 C 14.711967 12.550781 14.994141 13.403337 14.994141 13.6875 C 14.994141 13.971662 14.710937 13.972656 14.710938 13.972656 L 11.880859 13.972656 C 11.880859 13.972656 11.597656 13.971662 11.597656 13.6875 C 11.597656 13.403337 11.881783 12.550781 13.296875 12.550781 z M 3.8632812 12.798828 C 5.2783727 12.798828 5.5605469 13.651385 5.5605469 13.935547 C 5.5605469 14.219709 5.2773438 14.21875 5.2773438 14.21875 L 2.4472656 14.21875 C 2.4472656 14.21875 2.1640625 14.219709 2.1640625 13.935547 C 2.1640625 13.651385 2.4481898 12.798828 3.8632812 12.798828 z " /></svg>
