<svg xmlns="http://www.w3.org/2000/svg" xml:space="preserve" width="16" height="16" fill="currentColor" class="bi bi-image"><path d="M6.002 5.5a1.5 1.5 0 1 1-3 0 1.5 1.5 0 0 1 3 0z"/><path d="M2.0019531 1A2 2 0 0 0 .00195312 3v10a2 2 0 0 0 1.99999998 2H14.001953a2 2 0 0 0 2-2V3a2 2 0 0 0-2-2H2.0019531zm0 1H14.001953a1 1 0 0 1 1 1v6.5l-3.777344-1.9472656a.5.5 0 0 0-.576171.09375L6.9375 11.355469 4.2773438 9.5839844a.5.5 0 0 0-.6289063.0625L1.0019531 12V3a1 1 0 0 1 1-1zm7.4804688 8.054688a.75379033.75683594 0 1 1 0 1.513671.75379033.75683594 0 0 1 0-1.513671zm3.8144531.507812a.84910832.85253906 0 1 1 0 1.705078.84910832.85253906 0 0 1 0-1.705078zm-9.4335938.248047a.84905661.85248714 0 1 1 0 1.703125.84905661.85248714 0 0 1 0-1.703125zm5.6191407 1.009765c1.2556451 0 1.5078121.755669 1.5078121 1.007813 0 .252144-.251953.251953-.251953.251953H8.2265625s-.25.000191-.25-.251953.2502147-1.007813 1.5058594-1.007813zm3.8144531.730469c1.415092 0 1.697266.852556 1.697266 1.136719 0 .284162-.283204.285156-.283203.285156h-2.830079s-.283203-.000994-.283203-.285156c0-.284163.284127-1.136719 1.699219-1.136719zm-9.4335938.248047c1.4150915 0 1.6972657.852557 1.6972657 1.136719s-.2832031.283203-.2832031.283203H2.4472656s-.2832031.000959-.2832031-.283203c0-.284162.2841273-1.136719 1.6992187-1.136719z"/></svg>