<?xml version="1.0" encoding="UTF-8" standalone="no"?>
<svg
   sodipodi:docname="person-fill-perspective-warped.svg"
   id="svg3579"
   version="1.1"
   viewBox="0 0 16 16"
   class="bi bi-person-fill"
   fill="currentColor"
   height="16"
   width="16"
   inkscape:version="1.2.2 (b0a8486541, 2022-12-01)"
   xmlns:inkscape="http://www.inkscape.org/namespaces/inkscape"
   xmlns:sodipodi="http://sodipodi.sourceforge.net/DTD/sodipodi-0.dtd"
   xmlns="http://www.w3.org/2000/svg"
   xmlns:svg="http://www.w3.org/2000/svg">
  <defs
     id="defs3583" />
  <sodipodi:namedview
     id="namedview3581"
     pagecolor="#ffffff"
     bordercolor="#666666"
     borderopacity="1.0"
     inkscape:showpageshadow="2"
     inkscape:pageopacity="0.0"
     inkscape:pagecheckerboard="0"
     inkscape:deskcolor="#d1d1d1"
     showgrid="false"
     inkscape:zoom="36.4375"
     inkscape:cx="15.931389"
     inkscape:cy="9.3310463"
     inkscape:window-width="2560"
     inkscape:window-height="1369"
     inkscape:window-x="-8"
     inkscape:window-y="-8"
     inkscape:window-maximized="1"
     inkscape:current-layer="svg3579" />
  <path
     d="m 4.3167782,12.840099 c 0,0 -0.516032,-0.16473 -0.600262,-0.92206 -0.08681,-0.78059 0.18289,-3.2000701 3.41078,-2.7693601 4.3702098,0.58315 5.2291998,4.1639801 5.1659098,5.2129101 -0.06065,1.0054 -1.00933,0.7026 -1.00933,0.7026 z m 2.767048,-4.7296201 c 0.83745,0.07668 1.65602,-0.49955 2.12812,-1.57932 0.51001,-1.16644 0.51928,-2.689051 -0.01119,-3.92037 -0.53244,-1.2359 -1.47758,-1.87488007 -2.41774,-1.68469007 -0.872765,0.17657007 -1.57671,1.03963007 -1.878228,2.20495807 -0.281319,1.087259 -0.181087,2.323092 0.2470009,3.297302 0.4268301,0.97136 1.1478671,1.61032 1.9320371,1.68212 z"
     id="path3577" />
</svg>
