<svg xmlns="http://www.w3.org/2000/svg" width="16" height="16" fill="currentColor" class="bi bi-person-fill"><path d="M4.3167782 12.840099s-.516032-.16473-.600262-.92206c-.08681-.78059.18289-3.2000701 3.41078-2.7693601 4.3702098.58315 5.2291998 4.1639801 5.1659098 5.2129101-.06065 1.0054-1.00933.7026-1.00933.7026zm2.767048-4.7296201c.83745.07668 1.65602-.49955 2.12812-1.57932.51001-1.16644.51928-2.689051-.01119-3.92037-.53244-1.2359-1.47758-1.87488007-2.41774-1.68469007-.872765.17657007-1.57671 1.03963007-1.878228 2.20495807-.281319 1.087259-.181087 2.323092.2470009 3.297302.4268301.97136 1.1478671 1.61032 1.9320371 1.68212z"/></svg>