<?xml version="1.0" encoding="UTF-8" standalone="no"?>
<!-- Created with Inkscape (http://www.inkscape.org/) -->

<svg
   width="100"
   height="100"
   viewBox="0 0 100 99.999999"
   version="1.1"
   id="svg5"
   inkscape:version="1.2.2 (b0a8486541, 2022-12-01)"
   sodipodi:docname="splash.svg"
   xmlns:inkscape="http://www.inkscape.org/namespaces/inkscape"
   xmlns:sodipodi="http://sodipodi.sourceforge.net/DTD/sodipodi-0.dtd"
   xmlns="http://www.w3.org/2000/svg"
   xmlns:svg="http://www.w3.org/2000/svg">
  <sodipodi:namedview
     id="namedview7"
     pagecolor="#ffffff"
     bordercolor="#666666"
     borderopacity="1.0"
     inkscape:showpageshadow="2"
     inkscape:pageopacity="0.0"
     inkscape:pagecheckerboard="true"
     inkscape:deskcolor="#d1d1d1"
     inkscape:document-units="mm"
     showgrid="false"
     inkscape:zoom="5.1754899"
     inkscape:cx="38.933512"
     inkscape:cy="63.76208"
     inkscape:window-width="2560"
     inkscape:window-height="1369"
     inkscape:window-x="-8"
     inkscape:window-y="816"
     inkscape:window-maximized="1"
     inkscape:current-layer="layer1" />
  <defs
     id="defs2" />
  <g
     inkscape:label="Ebene 1"
     inkscape:groupmode="layer"
     id="layer1"
     transform="translate(-62.131947,-130.15751)">
    <g
       aria-label="Understanding
Face
Recognition"
       id="text236"
       style="font-size:10.5833px;line-height:1.25;stroke-width:0.264583">
      <path
         d="m 76.111003,167.07048 q 0,1.42627 -0.868161,2.18591 -0.868162,0.75964 -2.557976,0.75964 -1.689814,0 -2.557975,-0.75964 -0.862994,-0.75964 -0.862994,-2.18074 v -4.91441 h 1.994704 v 4.80072 q 0,0.80099 0.335896,1.19373 0.335896,0.39274 1.090369,0.39274 0.744139,0 1.085202,-0.37724 0.346231,-0.37724 0.346231,-1.20923 v -4.80072 h 1.994704 z"
         style="font-weight:bold;-inkscape-font-specification:'sans-serif Bold';text-align:center;text-anchor:middle"
         id="path978" />
      <path
         d="M 83.691911,169.85583 H 81.82123 v -2.87836 q 0,-0.3514 -0.03617,-0.69763 -0.03617,-0.3514 -0.124023,-0.51677 -0.103352,-0.1912 -0.30489,-0.27905 -0.19637,-0.0878 -0.552936,-0.0878 -0.253214,0 -0.516763,0.0827 -0.258381,0.0827 -0.563271,0.26354 v 4.11343 h -1.860346 v -5.80324 h 1.860346 v 0.64079 q 0.496092,-0.38758 0.950843,-0.59428 0.459919,-0.20671 1.018023,-0.20671 0.940508,0 1.467606,0.54777 0.532265,0.54777 0.532265,1.63814 z"
         style="font-weight:bold;-inkscape-font-specification:'sans-serif Bold';text-align:center;text-anchor:middle"
         id="path980" />
      <path
         d="m 91.045445,169.85583 h -1.860346 v -0.60461 q -0.480589,0.39274 -0.899167,0.57878 -0.418578,0.18603 -0.966346,0.18603 -1.059364,0 -1.694982,-0.81648 -0.635618,-0.81649 -0.635618,-2.20141 0,-0.73897 0.211873,-1.30741 0.21704,-0.57361 0.589109,-0.98185 0.351399,-0.38757 0.852659,-0.59945 0.50126,-0.21704 1.002519,-0.21704 0.521931,0 0.852659,0.11369 0.335895,0.10852 0.687294,0.27905 v -2.47012 h 1.860346 z m -1.860346,-1.60196 v -2.84736 q -0.19637,-0.0827 -0.41341,-0.11886 -0.21704,-0.0362 -0.397907,-0.0362 -0.733803,0 -1.100705,0.45992 -0.366901,0.45475 -0.366901,1.26607 0,0.85266 0.294554,1.24023 0.294555,0.3824 0.945676,0.3824 0.253214,0 0.537433,-0.093 0.28422,-0.0982 0.50126,-0.25321 z"
         style="font-weight:bold;-inkscape-font-specification:'sans-serif Bold';text-align:center;text-anchor:middle"
         id="path982" />
      <path
         d="m 98.517833,167.29786 h -4.258124 q 0.04134,0.68213 0.516762,1.04386 0.48059,0.36173 1.410762,0.36173 0.58911,0 1.142046,-0.21187 0.552936,-0.21187 0.873329,-0.45475 h 0.206705 v 1.49344 q -0.630451,0.25322 -1.188554,0.36691 -0.558104,0.11368 -1.235063,0.11368 -1.746658,0 -2.676831,-0.78548 -0.930173,-0.78547 -0.930173,-2.23758 0,-1.4366 0.878497,-2.27375 0.883664,-0.84233 2.418449,-0.84233 1.41593,0 2.129063,0.7183 0.713132,0.71314 0.713132,2.05672 z m -1.85001,-1.09037 q -0.0155,-0.58394 -0.289387,-0.8785 -0.273885,-0.29455 -0.852659,-0.29455 -0.537433,0 -0.883664,0.27905 -0.346231,0.27905 -0.387572,0.894 z"
         style="font-weight:bold;-inkscape-font-specification:'sans-serif Bold';text-align:center;text-anchor:middle"
         id="path984" />
      <path
         d="m 104.03686,165.82509 h -0.16537 q -0.11885,-0.0413 -0.3824,-0.062 -0.26355,-0.0207 -0.43925,-0.0207 -0.39791,0 -0.7028,0.0517 -0.30489,0.0517 -0.65629,0.1757 v 3.88605 h -1.860341 v -5.80324 h 1.860341 v 0.85266 q 0.61495,-0.5271 1.0697,-0.69763 0.45475,-0.1757 0.83716,-0.1757 0.0982,0 0.22221,0.005 0.12402,0.005 0.21704,0.0155 z"
         style="font-weight:bold;-inkscape-font-specification:'sans-serif Bold';text-align:center;text-anchor:middle"
         id="path986" />
      <path
         d="m 110.13466,168.01616 q 0,0.89917 -0.80615,1.4521 -0.80615,0.54777 -2.20658,0.54777 -0.77514,0 -1.40559,-0.14469 -0.63046,-0.1447 -1.01286,-0.3204 v -1.52961 h 0.17053 q 0.13953,0.0982 0.32039,0.21704 0.18604,0.11369 0.52194,0.24804 0.28938,0.11886 0.65628,0.20671 0.36691,0.0827 0.78548,0.0827 0.54777,0 0.81132,-0.11885 0.26355,-0.12403 0.26355,-0.36174 0,-0.21187 -0.15503,-0.30489 -0.15503,-0.0982 -0.58911,-0.18603 -0.2067,-0.0465 -0.56327,-0.0982 -0.3514,-0.0568 -0.64079,-0.13436 -0.79064,-0.2067 -1.17305,-0.64078 -0.3824,-0.43925 -0.3824,-1.09037 0,-0.83716 0.79065,-1.39009 0.79581,-0.55811 2.1704,-0.55811 0.65112,0 1.2454,0.13436 0.59944,0.12919 0.93534,0.27905 v 1.46761 h -0.1602 q -0.41341,-0.28422 -0.94568,-0.45992 -0.52709,-0.18087 -1.06969,-0.18087 -0.44959,0 -0.75965,0.12403 -0.30489,0.12402 -0.30489,0.3514 0,0.2067 0.13953,0.31522 0.13953,0.10852 0.65629,0.21704 0.28422,0.0568 0.60978,0.11369 0.33073,0.0517 0.66146,0.13436 0.7338,0.1912 1.0852,0.60461 0.3514,0.40824 0.3514,1.02319 z"
         style="font-weight:bold;-inkscape-font-specification:'sans-serif Bold';text-align:center;text-anchor:middle"
         id="path988" />
      <path
         d="m 115.08008,169.80416 q -0.29973,0.0775 -0.63562,0.11885 -0.3359,0.0465 -0.82166,0.0465 -1.0852,0 -1.61746,-0.43925 -0.5271,-0.43924 -0.5271,-1.50377 v -2.71301 h -0.76481 v -1.2609 h 0.76481 v -1.65881 h 1.86035 v 1.65881 h 1.74149 v 1.2609 h -1.74149 v 2.05672 q 0,0.30489 0.005,0.53226 0.005,0.22738 0.0827,0.40824 0.0723,0.18087 0.25321,0.28939 0.18603,0.10335 0.53743,0.10335 0.1447,0 0.37724,-0.062 0.23771,-0.062 0.33073,-0.11369 h 0.15503 z"
         style="font-weight:bold;-inkscape-font-specification:'sans-serif Bold';text-align:center;text-anchor:middle"
         id="path990" />
      <path
         d="m 119.7051,168.34172 v -1.20922 q -0.37724,0.031 -0.81648,0.0879 -0.43925,0.0517 -0.66663,0.12402 -0.27905,0.0879 -0.42891,0.25838 -0.14469,0.16536 -0.14469,0.43925 0,0.18086 0.031,0.29455 0.031,0.11369 0.15503,0.21704 0.11886,0.10336 0.28422,0.15503 0.16536,0.0465 0.51676,0.0465 0.27905,0 0.56327,-0.11369 0.28939,-0.11369 0.50643,-0.29972 z m 0,0.89917 q -0.14986,0.11369 -0.37207,0.27388 -0.22221,0.1602 -0.41858,0.25322 -0.27388,0.12402 -0.56843,0.18086 -0.29456,0.062 -0.64596,0.062 -0.82682,0 -1.38492,-0.51159 -0.55811,-0.5116 -0.55811,-1.30741 0,-0.63562 0.28422,-1.03869 0.28422,-0.40308 0.80615,-0.63562 0.51677,-0.23255 1.28158,-0.33073 0.7648,-0.0982 1.58646,-0.14469 v -0.031 q 0,-0.48059 -0.39274,-0.66146 -0.39274,-0.18603 -1.15755,-0.18603 -0.45992,0 -0.98185,0.16536 -0.52193,0.1602 -0.74931,0.24805 h -0.17053 v -1.40043 q 0.29456,-0.0775 0.95601,-0.18086 0.66663,-0.10852 1.33325,-0.10852 1.58646,0 2.28926,0.49092 0.70796,0.48576 0.70796,1.52962 v 3.94806 h -1.84484 z"
         style="font-weight:bold;-inkscape-font-specification:'sans-serif Bold';text-align:center;text-anchor:middle"
         id="path992" />
      <path
         d="m 129.08951,169.85583 h -1.87068 v -2.87836 q 0,-0.3514 -0.0362,-0.69763 -0.0362,-0.3514 -0.12403,-0.51677 -0.10335,-0.1912 -0.30489,-0.27905 -0.19637,-0.0878 -0.55293,-0.0878 -0.25322,0 -0.51676,0.0827 -0.25839,0.0827 -0.56328,0.26354 v 4.11343 h -1.86034 v -5.80324 h 1.86034 v 0.64079 q 0.4961,-0.38758 0.95085,-0.59428 0.45992,-0.20671 1.01802,-0.20671 0.94051,0 1.46761,0.54777 0.53226,0.54777 0.53226,1.63814 z"
         style="font-weight:bold;-inkscape-font-specification:'sans-serif Bold';text-align:center;text-anchor:middle"
         id="path994" />
      <path
         d="m 136.44305,169.85583 h -1.86035 v -0.60461 q -0.48059,0.39274 -0.89917,0.57878 -0.41857,0.18603 -0.96634,0.18603 -1.05937,0 -1.69498,-0.81648 -0.63562,-0.81649 -0.63562,-2.20141 0,-0.73897 0.21187,-1.30741 0.21704,-0.57361 0.58911,-0.98185 0.3514,-0.38757 0.85266,-0.59945 0.50126,-0.21704 1.00252,-0.21704 0.52193,0 0.85266,0.11369 0.33589,0.10852 0.68729,0.27905 v -2.47012 h 1.86035 z m -1.86035,-1.60196 v -2.84736 q -0.19637,-0.0827 -0.41341,-0.11886 -0.21704,-0.0362 -0.39791,-0.0362 -0.7338,0 -1.1007,0.45992 -0.3669,0.45475 -0.3669,1.26607 0,0.85266 0.29455,1.24023 0.29456,0.3824 0.94568,0.3824 0.25321,0 0.53743,-0.093 0.28422,-0.0982 0.50126,-0.25321 z"
         style="font-weight:bold;-inkscape-font-specification:'sans-serif Bold';text-align:center;text-anchor:middle"
         id="path996" />
      <path
         d="m 140.06039,169.85583 h -1.86035 v -5.80324 h 1.86035 z m 0.0517,-6.63006 h -1.96369 v -1.41076 h 1.96369 z"
         style="font-weight:bold;-inkscape-font-specification:'sans-serif Bold';text-align:center;text-anchor:middle"
         id="path998" />
      <path
         d="m 147.64646,169.85583 h -1.87068 v -2.87836 q 0,-0.3514 -0.0362,-0.69763 -0.0362,-0.3514 -0.12402,-0.51677 -0.10335,-0.1912 -0.30489,-0.27905 -0.19637,-0.0878 -0.55294,-0.0878 -0.25321,0 -0.51676,0.0827 -0.25838,0.0827 -0.56327,0.26354 v 4.11343 h -1.86035 v -5.80324 h 1.86035 v 0.64079 q 0.49609,-0.38758 0.95084,-0.59428 0.45992,-0.20671 1.01803,-0.20671 0.9405,0 1.4676,0.54777 0.53227,0.54777 0.53227,1.63814 z"
         style="font-weight:bold;-inkscape-font-specification:'sans-serif Bold';text-align:center;text-anchor:middle"
         id="path1000" />
      <path
         d="m 155,169.18921 q 0,0.81649 -0.23255,1.37459 -0.23254,0.5581 -0.65112,0.87333 -0.41858,0.32039 -1.01285,0.45992 -0.58911,0.14469 -1.33325,0.14469 -0.60461,0 -1.19372,-0.0724 -0.58394,-0.0723 -1.01286,-0.17569 v -1.45211 h 0.22738 q 0.34106,0.13436 0.83199,0.24288 0.49092,0.11369 0.87849,0.11369 0.51677,0 0.83716,-0.0982 0.32556,-0.093 0.49609,-0.26871 0.1602,-0.16537 0.23254,-0.42375 0.0724,-0.25838 0.0724,-0.62011 v -0.10852 q -0.33589,0.27388 -0.74414,0.43408 -0.40824,0.16019 -0.9095,0.16019 -1.21956,0 -1.88102,-0.7338 -0.66145,-0.7338 -0.66145,-2.23241 0,-0.7183 0.20154,-1.24024 0.20153,-0.52193 0.56843,-0.9095 0.34107,-0.36173 0.83716,-0.56327 0.50126,-0.20154 1.02319,-0.20154 0.47025,0 0.85266,0.11369 0.38757,0.10852 0.7028,0.30489 l 0.0672,-0.25838 H 155 Z m -1.86035,-1.16271 v -2.63033 q -0.1602,-0.0672 -0.39274,-0.10335 -0.23254,-0.0413 -0.41858,-0.0413 -0.7338,0 -1.1007,0.42374 -0.3669,0.41858 -0.3669,1.17306 0,0.83715 0.31006,1.16788 0.31522,0.33073 0.93017,0.33073 0.27905,0 0.54777,-0.0879 0.26871,-0.0879 0.49092,-0.23254 z"
         style="font-weight:bold;-inkscape-font-specification:'sans-serif Bold';text-align:center;text-anchor:middle"
         id="path1002" />
      <path
         d="m 105.02646,176.87864 h -3.53983 v 1.43143 h 3.28145 v 1.48828 h -3.28145 v 3.28661 h -1.974029 v -7.6946 h 5.513859 z"
         style="font-weight:bold;-inkscape-font-specification:'sans-serif Bold';text-align:center;text-anchor:middle"
         id="path1004" />
      <path
         d="m 109.80651,181.57084 v -1.20922 q -0.37723,0.031 -0.81648,0.0879 -0.43925,0.0517 -0.66663,0.12402 -0.27905,0.0879 -0.42891,0.25838 -0.14469,0.16537 -0.14469,0.43925 0,0.18087 0.031,0.29456 0.031,0.11369 0.15503,0.21704 0.11886,0.10335 0.28422,0.15503 0.16537,0.0465 0.51676,0.0465 0.27906,0 0.56328,-0.11369 0.28938,-0.11369 0.50642,-0.29973 z m 0,0.89917 q -0.14986,0.11369 -0.37207,0.27389 -0.2222,0.16019 -0.41857,0.25321 -0.27389,0.12402 -0.56844,0.18087 -0.29456,0.062 -0.64596,0.062 -0.82682,0 -1.38492,-0.5116 -0.5581,-0.51159 -0.5581,-1.30741 0,-0.63561 0.28422,-1.03869 0.28422,-0.40307 0.80615,-0.63562 0.51676,-0.23254 1.28157,-0.33073 0.76481,-0.0982 1.58646,-0.14469 v -0.031 q 0,-0.48059 -0.39274,-0.66146 -0.39274,-0.18604 -1.15755,-0.18604 -0.45992,0 -0.98185,0.16537 -0.52193,0.16019 -0.7493,0.24804 h -0.17054 v -1.40042 q 0.29456,-0.0775 0.95601,-0.18087 0.66663,-0.10852 1.33325,-0.10852 1.58646,0 2.28926,0.49093 0.70797,0.48575 0.70797,1.52961 v 3.94807 h -1.84485 z"
         style="font-weight:bold;-inkscape-font-specification:'sans-serif Bold';text-align:center;text-anchor:middle"
         id="path1006" />
      <path
         d="m 116.3849,183.23999 q -0.75964,0 -1.39009,-0.18087 -0.62528,-0.18087 -1.09037,-0.5581 -0.45992,-0.37724 -0.71313,-0.95085 -0.25321,-0.5736 -0.25321,-1.34358 0,-0.81132 0.26871,-1.40043 0.27389,-0.5891 0.75964,-0.97668 0.47026,-0.3669 1.0852,-0.53743 0.61495,-0.17053 1.27641,-0.17053 0.59428,0 1.09554,0.12919 0.50126,0.12919 0.93534,0.33589 v 1.58647 h -0.26355 q -0.10852,-0.093 -0.26355,-0.21704 -0.14986,-0.12403 -0.37207,-0.24288 -0.21187,-0.11369 -0.46509,-0.18604 -0.25321,-0.0775 -0.58911,-0.0775 -0.74414,0 -1.14721,0.47542 -0.39791,0.47025 -0.39791,1.28157 0,0.83716 0.40825,1.27124 0.41341,0.43408 1.16788,0.43408 0.3514,0 0.63045,-0.0775 0.28422,-0.0827 0.47025,-0.1912 0.1757,-0.10335 0.31006,-0.21704 0.13436,-0.11369 0.24805,-0.22221 h 0.26355 v 1.58646 q -0.43925,0.20671 -0.91984,0.32557 -0.47542,0.12402 -1.0542,0.12402 z"
         style="font-weight:bold;-inkscape-font-specification:'sans-serif Bold';text-align:center;text-anchor:middle"
         id="path1008" />
      <path
         d="m 125.30423,180.52698 h -4.25813 q 0.0413,0.68213 0.51676,1.04386 0.48059,0.36174 1.41077,0.36174 0.58911,0 1.14204,-0.21187 0.55294,-0.21188 0.87333,-0.45476 h 0.20671 v 1.49345 q -0.63045,0.25321 -1.18856,0.3669 -0.5581,0.11369 -1.23506,0.11369 -1.74666,0 -2.67683,-0.78548 -0.93017,-0.78548 -0.93017,-2.23758 0,-1.4366 0.87849,-2.27376 0.88367,-0.84232 2.41845,-0.84232 1.41593,0 2.12906,0.7183 0.71314,0.71313 0.71314,2.05671 z m -1.85001,-1.09036 q -0.0155,-0.58395 -0.28939,-0.8785 -0.27389,-0.29456 -0.85266,-0.29456 -0.53743,0 -0.88366,0.27906 -0.34624,0.27905 -0.38758,0.894 z"
         style="font-weight:bold;-inkscape-font-specification:'sans-serif Bold';text-align:center;text-anchor:middle"
         id="path1010" />
      <path
         d="m 82.131288,190.97593 q 0,-0.28939 -0.118855,-0.4961 -0.118856,-0.2067 -0.408243,-0.32556 -0.201537,-0.0827 -0.470254,-0.0982 -0.268717,-0.0207 -0.625283,-0.0207 h -0.7183 v 2.07222 h 0.60978 q 0.475422,0 0.795815,-0.0465 0.320392,-0.0465 0.537433,-0.21188 0.206705,-0.16019 0.299722,-0.35139 0.09819,-0.19637 0.09819,-0.52193 z m 3.095408,5.33815 H 82.80308 l -2.098057,-2.82152 h -0.91467 v 2.82152 H 77.81632 v -7.69459 h 3.327951 q 0.682127,0 1.173052,0.0775 0.490924,0.0775 0.919837,0.3359 0.434081,0.25838 0.687295,0.67179 0.258381,0.40824 0.258381,1.02836 0,0.85266 -0.397907,1.39009 -0.39274,0.53743 -1.126543,0.894 z"
         style="font-weight:bold;-inkscape-font-specification:'sans-serif Bold';text-align:center;text-anchor:middle"
         id="path1012" />
      <path
         d="m 91.7069,193.75611 h -4.258124 q 0.04134,0.68213 0.516762,1.04386 0.48059,0.36173 1.410762,0.36173 0.58911,0 1.142046,-0.21187 0.552936,-0.21187 0.873329,-0.45475 h 0.206705 v 1.49344 q -0.630451,0.25322 -1.188554,0.36691 -0.558104,0.11368 -1.235063,0.11368 -1.746658,0 -2.676831,-0.78548 -0.930172,-0.78548 -0.930172,-2.23758 0,-1.4366 0.878496,-2.27375 0.883664,-0.84233 2.418449,-0.84233 1.41593,0 2.129063,0.7183 0.713132,0.71313 0.713132,2.05672 z m -1.85001,-1.09037 q -0.0155,-0.58394 -0.289387,-0.8785 -0.273885,-0.29455 -0.852659,-0.29455 -0.537433,0 -0.883664,0.27905 -0.346231,0.27905 -0.387572,0.894 z"
         style="font-weight:bold;-inkscape-font-specification:'sans-serif Bold';text-align:center;text-anchor:middle"
         id="path1014" />
      <path
         d="m 96.042539,196.46911 q -0.759641,0 -1.390092,-0.18086 -0.625283,-0.18087 -1.090369,-0.55811 -0.459919,-0.37723 -0.713133,-0.95084 -0.253213,-0.57361 -0.253213,-1.34358 0,-0.81132 0.268716,-1.40043 0.273885,-0.58911 0.759641,-0.97668 0.470255,-0.3669 1.085202,-0.53744 0.614948,-0.17053 1.276404,-0.17053 0.594277,0 1.095537,0.12919 0.50126,0.12919 0.93534,0.3359 v 1.58646 h -0.263549 q -0.10852,-0.093 -0.263549,-0.21704 -0.149861,-0.12402 -0.372069,-0.24288 -0.211873,-0.11369 -0.465086,-0.18603 -0.253214,-0.0775 -0.58911,-0.0775 -0.744138,0 -1.147213,0.47542 -0.397907,0.47026 -0.397907,1.28158 0,0.83715 0.408242,1.27123 0.413411,0.43408 1.167884,0.43408 0.351399,0 0.630451,-0.0775 0.284219,-0.0827 0.470254,-0.1912 0.175699,-0.10336 0.310057,-0.21704 0.134358,-0.11369 0.248046,-0.22221 h 0.263549 v 1.58646 q -0.439248,0.2067 -0.919837,0.32556 -0.475422,0.12402 -1.054196,0.12402 z"
         style="font-weight:bold;-inkscape-font-specification:'sans-serif Bold';text-align:center;text-anchor:middle"
         id="path1016" />
      <path
         d="m 105.1789,193.41505 q 0,1.43143 -0.83715,2.25825 -0.83199,0.82165 -2.34094,0.82165 -1.50894,0 -2.3461,-0.82165 -0.831988,-0.82682 -0.831988,-2.25825 0,-1.44177 0.837156,-2.26343 0.842322,-0.82165 2.340932,-0.82165 1.51929,0 2.34611,0.82682 0.83198,0.82682 0.83198,2.25826 z m -2.28926,1.41076 q 0.18087,-0.22221 0.26872,-0.53227 0.093,-0.31522 0.093,-0.86816 0,-0.51159 -0.093,-0.85783 -0.093,-0.34623 -0.25838,-0.55293 -0.16536,-0.21187 -0.39791,-0.29972 -0.23254,-0.0879 -0.50126,-0.0879 -0.26871,0 -0.48059,0.0723 -0.2067,0.0724 -0.3979,0.28939 -0.17054,0.20154 -0.27389,0.55294 -0.0982,0.3514 -0.0982,0.88366 0,0.47542 0.0879,0.82682 0.0879,0.34623 0.25838,0.5581 0.16536,0.20154 0.39274,0.29456 0.23254,0.093 0.5271,0.093 0.25321,0 0.48059,-0.0827 0.23254,-0.0879 0.39273,-0.28938 z"
         style="font-weight:bold;-inkscape-font-specification:'sans-serif Bold';text-align:center;text-anchor:middle"
         id="path1018" />
      <path
         d="m 112.1552,195.64746 q 0,0.81649 -0.23254,1.37459 -0.23255,0.5581 -0.65113,0.87333 -0.41857,0.32039 -1.01285,0.45992 -0.58911,0.14469 -1.33325,0.14469 -0.60461,0 -1.19372,-0.0724 -0.58394,-0.0723 -1.01285,-0.1757 v -1.4521 h 0.22737 q 0.34106,0.13436 0.83199,0.24288 0.49092,0.11369 0.8785,0.11369 0.51676,0 0.83715,-0.0982 0.32556,-0.093 0.49609,-0.26871 0.1602,-0.16537 0.23255,-0.42375 0.0723,-0.25838 0.0723,-0.62011 v -0.10853 q -0.33589,0.27389 -0.74414,0.43409 -0.40824,0.16019 -0.9095,0.16019 -1.21956,0 -1.88101,-0.7338 -0.66146,-0.7338 -0.66146,-2.23242 0,-0.7183 0.20154,-1.24023 0.20153,-0.52193 0.56844,-0.9095 0.34106,-0.36173 0.83715,-0.56327 0.50126,-0.20154 1.02319,-0.20154 0.47026,0 0.85266,0.11369 0.38757,0.10852 0.7028,0.30489 l 0.0672,-0.25838 h 1.8035 z m -1.86035,-1.16272 v -2.63032 q -0.16019,-0.0672 -0.39274,-0.10335 -0.23254,-0.0413 -0.41857,-0.0413 -0.73381,0 -1.10071,0.42374 -0.3669,0.41858 -0.3669,1.17306 0,0.83715 0.31006,1.16788 0.31522,0.33073 0.93017,0.33073 0.27905,0 0.54777,-0.0879 0.26871,-0.0879 0.49092,-0.23255 z"
         style="font-weight:bold;-inkscape-font-specification:'sans-serif Bold';text-align:center;text-anchor:middle"
         id="path1020" />
      <path
         d="m 119.74128,196.31408 h -1.87068 v -2.87836 q 0,-0.3514 -0.0362,-0.69763 -0.0362,-0.3514 -0.12402,-0.51677 -0.10335,-0.1912 -0.30489,-0.27905 -0.19637,-0.0879 -0.55294,-0.0879 -0.25321,0 -0.51676,0.0827 -0.25838,0.0827 -0.56327,0.26355 v 4.11343 h -1.86035 v -5.80324 h 1.86035 v 0.64078 q 0.49609,-0.38757 0.95084,-0.59427 0.45992,-0.20671 1.01802,-0.20671 0.94051,0 1.46761,0.54777 0.53227,0.54777 0.53227,1.63814 z"
         style="font-weight:bold;-inkscape-font-specification:'sans-serif Bold';text-align:center;text-anchor:middle"
         id="path1022" />
      <path
         d="m 123.31211,196.31408 h -1.86035 v -5.80324 h 1.86035 z m 0.0517,-6.63006 h -1.9637 v -1.41076 h 1.9637 z"
         style="font-weight:bold;-inkscape-font-specification:'sans-serif Bold';text-align:center;text-anchor:middle"
         id="path1024" />
      <path
         d="m 128.77946,196.26241 q -0.29973,0.0775 -0.63562,0.11885 -0.3359,0.0465 -0.82166,0.0465 -1.0852,0 -1.61746,-0.43925 -0.5271,-0.43924 -0.5271,-1.50378 v -2.713 h -0.76481 v -1.2609 h 0.76481 v -1.65881 h 1.86035 v 1.65881 h 1.74149 v 1.2609 h -1.74149 v 2.05672 q 0,0.30489 0.005,0.53226 0.005,0.22738 0.0827,0.40824 0.0723,0.18087 0.25321,0.28939 0.18603,0.10335 0.53743,0.10335 0.1447,0 0.37724,-0.062 0.23771,-0.062 0.33073,-0.11369 h 0.15503 z"
         style="font-weight:bold;-inkscape-font-specification:'sans-serif Bold';text-align:center;text-anchor:middle"
         id="path1026" />
      <path
         d="m 131.75084,196.31408 h -1.86034 v -5.80324 h 1.86034 z m 0.0517,-6.63006 h -1.9637 v -1.41076 h 1.9637 z"
         style="font-weight:bold;-inkscape-font-specification:'sans-serif Bold';text-align:center;text-anchor:middle"
         id="path1028" />
      <path
         d="m 139.44027,193.41505 q 0,1.43143 -0.83716,2.25825 -0.83199,0.82165 -2.34093,0.82165 -1.50895,0 -2.34611,-0.82165 -0.83198,-0.82682 -0.83198,-2.25825 0,-1.44177 0.83715,-2.26343 0.84233,-0.82165 2.34094,-0.82165 1.51928,0 2.3461,0.82682 0.83199,0.82682 0.83199,2.25826 z m -2.28926,1.41076 q 0.18087,-0.22221 0.26872,-0.53227 0.093,-0.31522 0.093,-0.86816 0,-0.51159 -0.093,-0.85783 -0.093,-0.34623 -0.25839,-0.55293 -0.16536,-0.21187 -0.3979,-0.29972 -0.23255,-0.0879 -0.50126,-0.0879 -0.26872,0 -0.48059,0.0723 -0.20671,0.0724 -0.39791,0.28939 -0.17053,0.20154 -0.27388,0.55294 -0.0982,0.3514 -0.0982,0.88366 0,0.47542 0.0879,0.82682 0.0879,0.34623 0.25838,0.5581 0.16537,0.20154 0.39274,0.29456 0.23255,0.093 0.5271,0.093 0.25321,0 0.48059,-0.0827 0.23254,-0.0879 0.39274,-0.28938 z"
         style="font-weight:bold;-inkscape-font-specification:'sans-serif Bold';text-align:center;text-anchor:middle"
         id="path1030" />
      <path
         d="m 146.6026,196.31408 h -1.87068 v -2.87836 q 0,-0.3514 -0.0362,-0.69763 -0.0362,-0.3514 -0.12402,-0.51677 -0.10335,-0.1912 -0.30489,-0.27905 -0.19637,-0.0879 -0.55294,-0.0879 -0.25321,0 -0.51676,0.0827 -0.25838,0.0827 -0.56327,0.26355 v 4.11343 h -1.86035 v -5.80324 h 1.86035 v 0.64078 q 0.49609,-0.38757 0.95084,-0.59427 0.45992,-0.20671 1.01803,-0.20671 0.9405,0 1.4676,0.54777 0.53227,0.54777 0.53227,1.63814 z"
         style="font-weight:bold;-inkscape-font-specification:'sans-serif Bold';text-align:center;text-anchor:middle"
         id="path1032" />
    </g>
  </g>
</svg>
